<?xml version="1.0" standalone="no"?>
 <!DOCTYPE svg PUBLIC "-//W3C//DTD SVG 1.1//EN" 
 "http://www.w3.org/Graphics/SVG/1.1/DTD/svg11.dtd"> 
<svg
  xmlns:svg="http://www.w3.org/2000/svg"
  xmlns="http://www.w3.org/2000/svg"
  xmlns:xlink="http://www.w3.org/1999/xlink"
  xmlns:inkscape="http://www.inkscape.org/namespaces/inkscape"
  version="1.1"
  width="297.0022mm" height="210.0072mm" viewBox="0.0000 0.0000 297.0022 210.0072">
<title>SVG Image created as pcb-supermini-c3-bmp390-F_Cu.svg date 2026-03-25T20:42:28 </title>
  <desc>Image generated by PCBNEW </desc>
<g style="fill:#000000; fill-opacity:1.0000;stroke:#000000; stroke-opacity:1.0000;
stroke-linecap:round; stroke-linejoin:round;"
 transform="translate(0 0) scale(1 1)">
</g>
<g style="fill:#000000; fill-opacity:1.0000; stroke:none;">
<rect x="74.000000" y="109.250000" width="74.250000" height="42.500000" rx="0.000000" />
<path style="fill:#FFFFFF; fill-opacity:1.0000; stroke:none;fill-rule:evenodd;"
d="M 87.3375,130.8500
87.3489,130.7926
87.3814,130.7439
87.4301,130.7114
87.4875,130.7000
88.5125,130.7000
88.5699,130.7114
88.6186,130.7439
88.6511,130.7926
88.6625,130.8500
88.6625,131.1500
88.6511,131.2074
88.6186,131.2561
88.5699,131.2886
88.5125,131.3000
87.4875,131.3000
87.4301,131.2886
87.3814,131.2561
87.3489,131.2074
87.3375,131.1500
Z" /> 
<path style="fill:#FFFFFF; fill-opacity:1.0000; stroke:none;fill-rule:evenodd;"
d="M 87.3375,132.7500
87.3489,132.6926
87.3814,132.6439
87.4301,132.6114
87.4875,132.6000
88.5125,132.6000
88.5699,132.6114
88.6186,132.6439
88.6511,132.6926
88.6625,132.7500
88.6625,133.0500
88.6511,133.1074
88.6186,133.1561
88.5699,133.1886
88.5125,133.2000
87.4875,133.2000
87.4301,133.1886
87.3814,133.1561
87.3489,133.1074
87.3375,133.0500
Z" /> 
<path style="fill:#FFFFFF; fill-opacity:1.0000; stroke:none;fill-rule:evenodd;"
d="M 89.6125,131.8000
89.6239,131.7426
89.6564,131.6939
89.7051,131.6614
89.7625,131.6500
90.7875,131.6500
90.8449,131.6614
90.8936,131.6939
90.9261,131.7426
90.9375,131.8000
90.9375,132.1000
90.9261,132.1574
90.8936,132.2061
90.8449,132.2386
90.7875,132.2500
89.7625,132.2500
89.7051,132.2386
89.6564,132.2061
89.6239,132.1574
89.6125,132.1000
Z" /> 
</g>
<g style="fill:#FFFFFF; fill-opacity:1.0000; stroke:none;">
<circle cx="138.0000" cy="141.2500" r="1.8000" /> 
<circle cx="138.0000" cy="141.2500" r="2.8500" /> 
<path style="fill:#FFFFFF; fill-opacity:1.0000; stroke:none;fill-rule:evenodd;"
d="M 85.6500,129.8500
85.7074,129.8614
85.7561,129.8939
85.7886,129.9426
85.8000,130.0000
85.8000,130.3000
85.7886,130.3574
85.7561,130.4061
85.7074,130.4386
85.6500,130.4500
84.2500,130.4500
84.1926,130.4386
84.1439,130.4061
84.1114,130.3574
84.1000,130.3000
84.1000,130.0000
84.1114,129.9426
84.1439,129.8939
84.1926,129.8614
84.2500,129.8500
Z" /> 
<path style="fill:#FFFFFF; fill-opacity:1.0000; stroke:none;fill-rule:evenodd;"
d="M 85.6500,131.1000
85.7074,131.1114
85.7561,131.1439
85.7886,131.1926
85.8000,131.2500
85.8000,131.5500
85.7886,131.6074
85.7561,131.6561
85.7074,131.6886
85.6500,131.7000
84.2500,131.7000
84.1926,131.6886
84.1439,131.6561
84.1114,131.6074
84.1000,131.5500
84.1000,131.2500
84.1114,131.1926
84.1439,131.1439
84.1926,131.1114
84.2500,131.1000
Z" /> 
<path style="fill:#FFFFFF; fill-opacity:1.0000; stroke:none;fill-rule:evenodd;"
d="M 85.6500,132.3500
85.7074,132.3614
85.7561,132.3939
85.7886,132.4426
85.8000,132.5000
85.8000,132.8000
85.7886,132.8574
85.7561,132.9061
85.7074,132.9386
85.6500,132.9500
84.2500,132.9500
84.1926,132.9386
84.1439,132.9061
84.1114,132.8574
84.1000,132.8000
84.1000,132.5000
84.1114,132.4426
84.1439,132.3939
84.1926,132.3614
84.2500,132.3500
Z" /> 
<path style="fill:#FFFFFF; fill-opacity:1.0000; stroke:none;fill-rule:evenodd;"
d="M 85.6500,133.6000
85.7074,133.6114
85.7561,133.6439
85.7886,133.6926
85.8000,133.7500
85.8000,134.0500
85.7886,134.1074
85.7561,134.1561
85.7074,134.1886
85.6500,134.2000
84.2500,134.2000
84.1926,134.1886
84.1439,134.1561
84.1114,134.1074
84.1000,134.0500
84.1000,133.7500
84.1114,133.6926
84.1439,133.6439
84.1926,133.6114
84.2500,133.6000
Z" /> 
<path style="fill:#FFFFFF; fill-opacity:1.0000; stroke:none;fill-rule:evenodd;"
d="M 82.8500,127.8000
82.9457,127.8190
83.0268,127.8732
83.0810,127.9543
83.1000,128.0500
83.1000,128.5500
83.0810,128.6457
83.0268,128.7268
82.9457,128.7810
82.8500,128.8000
80.6500,128.8000
80.5543,128.7810
80.4732,128.7268
80.4190,128.6457
80.4000,128.5500
80.4000,128.0500
80.4190,127.9543
80.4732,127.8732
80.5543,127.8190
80.6500,127.8000
Z" /> 
<path style="fill:#FFFFFF; fill-opacity:1.0000; stroke:none;fill-rule:evenodd;"
d="M 82.8500,135.2500
82.9457,135.2690
83.0268,135.3232
83.0810,135.4043
83.1000,135.5000
83.1000,136.0000
83.0810,136.0957
83.0268,136.1768
82.9457,136.2310
82.8500,136.2500
80.6500,136.2500
80.5543,136.2310
80.4732,136.1768
80.4190,136.0957
80.4000,136.0000
80.4000,135.5000
80.4190,135.4043
80.4732,135.3232
80.5543,135.2690
80.6500,135.2500
Z" /> 
<circle cx="84.7500" cy="141.0000" r="1.8000" /> 
<circle cx="84.7500" cy="141.0000" r="2.8500" /> 
<path style="fill:#FFFFFF; fill-opacity:1.0000; stroke:none;fill-rule:evenodd;"
d="M 125.2075,139.5420
125.2075,138.0180
128.2325,138.0180
128.2325,139.5420
Z" /> 
<path style="fill:#FFFFFF; fill-opacity:1.0000; stroke:none;fill-rule:evenodd;"
d="M 125.2075,137.0020
125.2075,135.4780
128.2325,135.4780
128.2325,137.0020
Z" /> 
<path style="fill:#FFFFFF; fill-opacity:1.0000; stroke:none;fill-rule:evenodd;"
d="M 125.2075,134.4620
125.2075,132.9380
128.2325,132.9380
128.2325,134.4620
Z" /> 
<path style="fill:#FFFFFF; fill-opacity:1.0000; stroke:none;fill-rule:evenodd;"
d="M 125.2075,131.9220
125.2075,130.3980
128.2325,130.3980
128.2325,131.9220
Z" /> 
<path style="fill:#FFFFFF; fill-opacity:1.0000; stroke:none;fill-rule:evenodd;"
d="M 125.2075,126.8420
125.2075,125.3180
128.2325,125.3180
128.2325,126.8420
Z" /> 
<path style="fill:#FFFFFF; fill-opacity:1.0000; stroke:none;fill-rule:evenodd;"
d="M 125.2075,129.3820
125.2075,127.8580
128.2325,127.8580
128.2325,129.3820
Z" /> 
<path style="fill:#FFFFFF; fill-opacity:1.0000; stroke:none;fill-rule:evenodd;"
d="M 109.2375,121.7620
109.2375,120.2380
112.2625,120.2380
112.2625,121.7620
Z" /> 
<path style="fill:#FFFFFF; fill-opacity:1.0000; stroke:none;fill-rule:evenodd;"
d="M 125.2075,121.7620
125.2075,120.2380
128.2325,120.2380
128.2325,121.7620
Z" /> 
<path style="fill:#FFFFFF; fill-opacity:1.0000; stroke:none;fill-rule:evenodd;"
d="M 109.2375,124.3020
109.2375,122.7780
112.2625,122.7780
112.2625,124.3020
Z" /> 
<path style="fill:#FFFFFF; fill-opacity:1.0000; stroke:none;fill-rule:evenodd;"
d="M 109.2375,126.8420
109.2375,125.3180
112.2625,125.3180
112.2625,126.8420
Z" /> 
<path style="fill:#FFFFFF; fill-opacity:1.0000; stroke:none;fill-rule:evenodd;"
d="M 109.2375,129.3820
109.2375,127.8580
112.2625,127.8580
112.2625,129.3820
Z" /> 
<path style="fill:#FFFFFF; fill-opacity:1.0000; stroke:none;fill-rule:evenodd;"
d="M 109.2375,131.9220
109.2375,130.3980
112.2625,130.3980
112.2625,131.9220
Z" /> 
<path style="fill:#FFFFFF; fill-opacity:1.0000; stroke:none;fill-rule:evenodd;"
d="M 109.2375,134.4620
109.2375,132.9380
112.2625,132.9380
112.2625,134.4620
Z" /> 
<path style="fill:#FFFFFF; fill-opacity:1.0000; stroke:none;fill-rule:evenodd;"
d="M 109.2375,137.0020
109.2375,135.4780
112.2625,135.4780
112.2625,137.0020
Z" /> 
<path style="fill:#FFFFFF; fill-opacity:1.0000; stroke:none;fill-rule:evenodd;"
d="M 109.2375,139.5420
109.2375,138.0180
112.2625,138.0180
112.2625,139.5420
Z" /> 
<path style="fill:#FFFFFF; fill-opacity:1.0000; stroke:none;fill-rule:evenodd;"
d="M 125.2075,124.3020
125.2075,122.7780
128.2325,122.7780
128.2325,124.3020
Z" /> 
<path style="fill:#FFFFFF; fill-opacity:1.0000; stroke:none;fill-rule:evenodd;"
d="M 95.4000,121.0000
95.4957,121.0190
95.5768,121.0732
95.6310,121.1543
95.6500,121.2500
95.6500,123.2500
95.6310,123.3457
95.5768,123.4268
95.4957,123.4810
95.4000,123.5000
94.1000,123.5000
94.0043,123.4810
93.9232,123.4268
93.8690,123.3457
93.8500,123.2500
93.8500,121.2500
93.8690,121.1543
93.9232,121.0732
94.0043,121.0190
94.1000,121.0000
Z" /> 
<path style="fill:#FFFFFF; fill-opacity:1.0000; stroke:none;fill-rule:evenodd;"
d="M 95.4000,125.0000
95.4957,125.0190
95.5768,125.0732
95.6310,125.1543
95.6500,125.2500
95.6500,127.2500
95.6310,127.3457
95.5768,127.4268
95.4957,127.4810
95.4000,127.5000
94.1000,127.5000
94.0043,127.4810
93.9232,127.4268
93.8690,127.3457
93.8500,127.2500
93.8500,125.2500
93.8690,125.1543
93.9232,125.0732
94.0043,125.0190
94.1000,125.0000
Z" /> 
<circle cx="84.7500" cy="120.2500" r="1.8000" /> 
<circle cx="84.7500" cy="120.2500" r="2.8500" /> 
<path style="fill:#FFFFFF; fill-opacity:1.0000; stroke:none;fill-rule:evenodd;"
d="M 91.8250,131.2000
91.8250,130.3000
93.1750,130.3000
93.1750,131.2000
Z" /> 
<path style="fill:#FFFFFF; fill-opacity:1.0000; stroke:none;fill-rule:evenodd;"
d="M 91.8250,133.7000
91.8250,132.8000
93.1750,132.8000
93.1750,133.7000
Z" /> 
<path style="fill:#FFFFFF; fill-opacity:1.0000; stroke:none;fill-rule:evenodd;"
d="M 96.3750,133.7000
96.3750,132.8000
97.7250,132.8000
97.7250,133.7000
Z" /> 
<path style="fill:#FFFFFF; fill-opacity:1.0000; stroke:none;fill-rule:evenodd;"
d="M 96.3750,131.2000
96.3750,130.3000
97.7250,130.3000
97.7250,131.2000
Z" /> 
<circle cx="138.0000" cy="119.2500" r="1.8000" /> 
<circle cx="138.0000" cy="119.2500" r="2.8500" /> 
<circle cx="90.0000" cy="142.0000" r="0.8000" /> 
<circle cx="100.1600" cy="142.0000" r="0.8000" /> 
<circle cx="100.0000" cy="138.2500" r="0.8000" /> 
<circle cx="95.0000" cy="138.2500" r="0.8000" /> 
<path style="fill:#FFFFFF; fill-opacity:1.0000; stroke:none;fill-rule:evenodd;"
d="M 103.3000,119.9949
103.3957,120.0139
103.4768,120.0681
103.5310,120.1492
103.5500,120.2449
103.5500,121.3449
103.5310,121.4406
103.4768,121.5217
103.3957,121.5759
103.3000,121.5949
102.2000,121.5949
102.1043,121.5759
102.0232,121.5217
101.9690,121.4406
101.9500,121.3449
101.9500,120.2449
101.9690,120.1492
102.0232,120.0681
102.1043,120.0139
102.2000,119.9949
Z" /> 
<circle cx="102.7500" cy="122.7949" r="0.8000" /> 
<circle cx="90.0000" cy="121.7500" r="0.8000" /> 
<circle cx="90.0000" cy="126.7500" r="0.8000" /> 
<circle cx="105.7500" cy="140.7900" r="1.0000" /> 
<circle cx="105.7500" cy="138.2500" r="1.0000" /> 
<circle cx="105.7500" cy="135.7100" r="1.0000" /> 
<circle cx="105.7500" cy="133.1700" r="1.0000" /> 
<circle cx="105.7500" cy="130.6300" r="1.0000" /> 
<circle cx="105.7500" cy="128.0900" r="1.0000" /> 
<circle cx="131.7500" cy="123.5000" r="0.9000" /> 
<circle cx="131.7500" cy="126.0400" r="0.9000" /> 
<circle cx="131.7500" cy="128.5800" r="0.9000" /> 
<circle cx="131.7500" cy="131.1200" r="0.9000" /> 
<circle cx="131.7500" cy="133.6600" r="0.9000" /> 
<circle cx="131.7500" cy="136.2000" r="0.9000" /> 
<circle cx="131.7500" cy="138.7400" r="0.9000" /> 
</g>
<g style="fill:none; 
stroke:#FFFFFF; stroke-width:0.8000; stroke-opacity:1; 
stroke-linecap:round; stroke-linejoin:round;">
<path d="M90.2750 131.9500
L94.7000 131.9500
" />
<path d="M85.2500 135.7500
L86.0250 134.9750
" />
<path d="M100.0000 135.2500
L100.0000 138.2500
" />
<path d="M100.0000 138.2500
L100.0000 141.8400
" />
<path d="M103.2051 122.7949
L102.7500 122.7949
" />
</g>
<g style="fill:none; 
stroke:#FFFFFF; stroke-width:1.0000; stroke-opacity:1; 
stroke-linecap:round; stroke-linejoin:round;">
<path d="M102.7500 122.7949
L98.2051 122.7949
" />
</g>
<g style="fill:none; 
stroke:#FFFFFF; stroke-width:0.8000; stroke-opacity:1; 
stroke-linecap:round; stroke-linejoin:round;">
<path d="M81.7500 128.3000
L81.7500 135.7500
" />
<path d="M94.7500 135.0000
L86.0500 135.0000
" />
<path d="M100.0000 141.8400
L100.1600 142.0000
" />
<path d="M123.2900 123.5400
L118.7500 119.0000
" />
<path d="M94.7500 132.0000
L94.7500 126.2500
" />
<path d="M94.7500 132.0000
L94.7500 135.0000
" />
<path d="M86.0500 135.0000
L86.0250 134.9750
" />
<path d="M126.7200 123.5400
L131.7100 123.5400
" />
<path d="M99.7500 135.0000
L100.0000 135.2500
" />
<path d="M86.0250 134.9750
L84.9500 133.9000
" />
<path d="M131.7100 123.5400
L131.7500 123.5000
" />
<path d="M100.0000 138.2500
L105.7500 138.2500
" />
<path d="M107.0000 119.0000
L103.2051 122.7949
" />
<path d="M81.7500 135.7500
L85.2500 135.7500
" />
<path d="M126.7200 123.5400
L123.2900 123.5400
" />
<path d="M118.7500 119.0000
L107.0000 119.0000
" />
<path d="M94.7500 135.0000
L99.7500 135.0000
" />
<path d="M94.7000 131.9500
L94.7500 132.0000
" />
</g>
<g style="fill:none; 
stroke:#FFFFFF; stroke-width:1.0000; stroke-opacity:1; 
stroke-linecap:round; stroke-linejoin:round;">
<path d="M98.2051 122.7949
L94.7500 126.2500
" />
<path d="M106.0449 117.5000
L102.7500 120.7949
" />
<path d="M94.7500 122.2500
L96.2051 120.7949
" />
<path d="M90.0000 121.7500
L94.2500 121.7500
" />
<path d="M123.6235 117.5000
L106.0449 117.5000
" />
<path d="M126.7200 121.0000
L126.7200 120.5965
" />
<path d="M94.2500 121.7500
L94.7500 122.2500
" />
<path d="M96.2051 120.7949
L102.7500 120.7949
" />
<path d="M126.7200 120.5965
L123.6235 117.5000
" />
</g>
<g style="fill:none; 
stroke:#FFFFFF; stroke-width:0.6000; stroke-opacity:1; 
stroke-linecap:round; stroke-linejoin:round;">
<path d="M85.2000 132.9000
L84.9500 132.6500
" />
<path d="M88.0000 132.9000
L85.2000 132.9000
" />
<path d="M88.3500 133.2500
L88.0000 132.9000
" />
<path d="M92.5000 133.2500
L88.3500 133.2500
" />
<path d="M86.2500 131.0000
L88.0000 131.0000
" />
<path d="M84.9500 131.4000
L85.8500 131.4000
" />
<path d="M92.5000 130.7500
L88.2500 130.7500
" />
<path d="M88.2500 130.7500
L88.0000 131.0000
" />
<path d="M85.8500 131.4000
L86.2500 131.0000
" />
</g>
<g style="fill:none; 
stroke:#FFFFFF; stroke-width:1.0000; stroke-opacity:1; 
stroke-linecap:round; stroke-linejoin:round;">
<path d="M88.3500 126.7500
L90.0000 126.7500
" />
<path d="M84.9500 130.1500
L88.3500 126.7500
" />
</g>
<g style="fill:none; 
stroke:#FFFFFF; stroke-width:0.8000; stroke-opacity:1; 
stroke-linecap:round; stroke-linejoin:round;">
<path d="M101.8700 130.6300
L105.7500 130.6300
" />
<path d="M97.0500 133.2500
L99.2500 133.2500
" />
<path d="M99.2500 133.2500
L101.8700 130.6300
" />
<path d="M105.7500 128.0900
L101.6600 128.0900
" />
<path d="M99.0000 130.7500
L97.0500 130.7500
" />
<path d="M101.6600 128.0900
L99.0000 130.7500
" />
<path d="M110.7500 136.2400
L106.2800 136.2400
" />
<path d="M106.2800 136.2400
L105.7500 135.7100
" />
<path d="M106.2800 133.7000
L105.7500 133.1700
" />
<path d="M110.7500 133.7000
L106.2800 133.7000
" />
<path d="M126.7200 126.0800
L121.1700 126.0800
" />
<path d="M119.7500 127.5000
L119.7500 139.2500
" />
<path d="M121.1700 126.0800
L119.7500 127.5000
" />
<path d="M107.2100 142.2500
L105.7500 140.7900
" />
<path d="M116.7500 142.2500
L107.2100 142.2500
" />
<path d="M131.7500 126.0400
L126.7600 126.0400
" />
<path d="M126.7600 126.0400
L126.7200 126.0800
" />
<path d="M119.7500 139.2500
L116.7500 142.2500
" />
<path d="M126.7600 128.5800
L126.7200 128.6200
" />
<path d="M131.7500 128.5800
L126.7600 128.5800
" />
<path d="M131.7500 131.1200
L126.7600 131.1200
" />
<path d="M126.7600 131.1200
L126.7200 131.1600
" />
<path d="M131.7500 133.6600
L126.7600 133.6600
" />
<path d="M126.7600 133.6600
L126.7200 133.7000
" />
<path d="M126.7600 136.2000
L126.7200 136.2400
" />
<path d="M131.7500 136.2000
L126.7600 136.2000
" />
<path style="fill:#FFFFFF; fill-opacity:1.0000; stroke:none;fill-rule:evenodd;"
d="M 97.3931,136.5050
97.4081,136.5094
97.4669,136.5472
97.4680,136.5485
97.4879,136.5920
97.4914,136.5909
97.4942,136.5998
97.4956,136.6088
97.4971,136.6121
97.4966,136.6154
97.5000,136.6373
97.5000,143.8577
97.4950,143.8926
97.4906,143.9076
97.4528,143.9664
97.4515,143.9675
97.3966,143.9950
97.3890,143.9967
97.3627,143.9995
81.1423,143.9995
81.1074,143.9945
81.0924,143.9901
81.0336,143.9523
81.0325,143.9510
81.0050,143.8961
81.0033,143.8885
81.0005,143.8622
81.0005,140.8492
82.4495,140.8492
82.4495,141.1508
82.4495,141.1508
82.4889,141.4498
82.4889,141.4498
82.4889,141.4498
82.4955,141.4745
82.5669,141.7411
82.6820,142.0190
82.6823,142.0196
82.6823,142.0197
82.6978,142.0464
82.8331,142.2808
82.8331,142.2808
82.8331,142.2808
83.0167,142.5201
83.0167,142.5201
83.0167,142.5201
83.0167,142.5201
83.2299,142.7333
83.2299,142.7333
83.2299,142.7333
83.2299,142.7333
83.4198,142.8790
83.4692,142.9169
83.7269,143.0657
83.7321,143.0687
83.7321,143.0687
83.7327,143.0690
83.7378,143.0708
83.9161,143.1446
83.9161,143.1446
83.9861,143.1736
84.0089,143.1831
84.0089,143.1831
84.0089,143.1831
84.0089,143.1831
84.0097,143.1834
84.0128,143.1841
84.3002,143.2611
84.5992,143.3005
84.5992,143.3005
84.9008,143.3005
84.9008,143.3005
85.1998,143.2611
85.4911,143.1831
85.7697,143.0677
85.8676,143.0111
86.0171,142.9248
86.0228,142.9215
86.0308,142.9169
86.2701,142.7333
86.4833,142.5201
86.6669,142.2808
86.8177,142.0197
86.8476,141.9473
86.8682,141.8977
88.7000,141.8977
88.7000,142.1023
88.7283,142.2808
88.7320,142.3044
88.7952,142.4990
88.8143,142.5365
88.8881,142.6814
88.8881,142.6814
88.9205,142.7259
88.9205,142.7259
88.9205,142.7259
88.9205,142.7259
89.4635,142.1829
89.5248,142.1495
89.5945,142.1544
89.6504,142.1963
89.6586,142.2086
89.6799,142.2456
89.7544,142.3201
89.7544,142.3201
89.7544,142.3201
89.7914,142.3414
89.8396,142.3920
89.8528,142.4606
89.8268,142.5255
89.8171,142.5365
89.2741,143.0795
89.2741,143.0795
89.2741,143.0795
89.3186,143.1119
89.3829,143.1446
89.5010,143.2048
89.5010,143.2048
89.5010,143.2048
89.6956,143.2680
89.8977,143.3000
90.1023,143.3000
90.1023,143.3000
90.3044,143.2680
90.4990,143.2048
90.6813,143.1119
90.7259,143.0795
90.1829,142.5365
90.1495,142.4752
90.1544,142.4055
90.1963,142.3495
90.2086,142.3414
90.2456,142.3201
90.3201,142.2456
90.3414,142.2086
90.3920,142.1604
90.4606,142.1472
90.5255,142.1732
90.5365,142.1829
91.0795,142.7259
91.0795,142.7259
91.1119,142.6813
91.2048,142.4990
91.2680,142.3044
91.3000,142.1023
91.3000,141.8977
91.2680,141.6956
91.2048,141.5010
91.2048,141.5010
91.2048,141.5010
91.1119,141.3186
91.1032,141.3067
91.0936,141.2799
91.0795,141.2741
90.5365,141.8171
90.4752,141.8505
90.4055,141.8456
90.3495,141.8037
90.3414,141.7914
90.3201,141.7544
90.2456,141.6799
90.2086,141.6586
90.1604,141.6080
90.1472,141.5394
90.1732,141.4745
90.1829,141.4635
90.7259,140.9205
90.7259,140.9205
90.7259,140.9205
90.7259,140.9205
90.7259,140.9205
90.6814,140.8881
90.6814,140.8881
90.6162,140.8549
90.4990,140.7952
90.3044,140.7320
90.3044,140.7320
90.1023,140.7000
90.1023,140.7000
89.8977,140.7000
89.8977,140.7000
89.6956,140.7320
89.6956,140.7320
89.6956,140.7320
89.5983,140.7636
89.5010,140.7952
89.3186,140.8881
89.2741,140.9205
89.2741,140.9205
89.8171,141.4635
89.8505,141.5248
89.8456,141.5945
89.8037,141.6504
89.7914,141.6586
89.7544,141.6799
89.7544,141.6799
89.6799,141.7544
89.6799,141.7544
89.6586,141.7914
89.6080,141.8396
89.5394,141.8528
89.4745,141.8268
89.4635,141.8171
88.9205,141.2741
88.9205,141.2741
88.9205,141.2741
88.8881,141.3186
88.7952,141.5010
88.7648,141.5945
88.7320,141.6956
88.7320,141.6956
88.7000,141.8977
86.8682,141.8977
86.8899,141.8454
86.9331,141.7411
86.9453,141.6956
86.9453,141.6956
86.9974,141.5010
87.0111,141.4498
87.0505,141.1508
87.0505,140.8492
87.0111,140.5502
86.9331,140.2589
86.8177,139.9803
86.6669,139.7192
86.4833,139.4799
86.4833,139.4799
86.4833,139.4799
86.4833,139.4799
86.2701,139.2667
86.2701,139.2667
86.2701,139.2667
86.2701,139.2667
86.2701,139.2667
86.0308,139.0831
86.0308,139.0831
86.0308,139.0831
85.7697,138.9323
85.7697,138.9323
85.7697,138.9323
85.7696,138.9323
85.7690,138.9320
85.7673,138.9314
85.4911,138.8169
85.4911,138.8169
85.4911,138.8169
85.3364,138.7755
85.1998,138.7389
85.1998,138.7389
85.1998,138.7389
84.9049,138.7000
84.9029,138.6997
84.9008,138.6995
84.9008,138.6995
84.9008,138.6995
84.5992,138.6995
84.5992,138.6995
84.5992,138.6995
84.5971,138.6997
84.5951,138.7000
84.3002,138.7389
84.3002,138.7389
84.3002,138.7389
84.2623,138.7490
84.0089,138.8169
83.7310,138.9320
83.7304,138.9323
83.7303,138.9323
83.4692,139.0831
83.2299,139.2667
83.2299,139.2667
83.2299,139.2667
83.0167,139.4799
83.0167,139.4799
83.0167,139.4799
82.8331,139.7192
82.6823,139.9803
82.6823,139.9804
82.6820,139.9810
82.5669,140.2589
82.5054,140.4887
82.4889,140.5502
82.4889,140.5502
82.4495,140.8492
82.4495,140.8492
81.0005,140.8492
81.0005,139.1473
81.0055,139.1124
81.0099,139.0974
81.0477,139.0386
81.0517,139.0351
81.0578,139.0299
81.0922,139.0087
83.2057,138.1477
93.7000,138.1477
93.7000,138.3523
93.7320,138.5544
93.7320,138.5544
93.7952,138.7490
93.8298,138.8169
93.8881,138.9314
93.8881,138.9314
93.9205,138.9759
93.9205,138.9759
93.9205,138.9759
93.9205,138.9759
94.4635,138.4329
94.5248,138.3995
94.5945,138.4044
94.6504,138.4463
94.6586,138.4586
94.6799,138.4956
94.7544,138.5701
94.7544,138.5701
94.7544,138.5701
94.7914,138.5914
94.8396,138.6420
94.8528,138.7106
94.8268,138.7755
94.8171,138.7865
94.2741,139.3295
94.2741,139.3295
94.2741,139.3295
94.3186,139.3619
94.4048,139.4057
94.5010,139.4548
94.5010,139.4548
94.5010,139.4548
94.6956,139.5180
94.8977,139.5500
95.1023,139.5500
95.1023,139.5500
95.3044,139.5180
95.4990,139.4548
95.6813,139.3619
95.7259,139.3295
95.1829,138.7865
95.1495,138.7252
95.1544,138.6555
95.1963,138.5995
95.2086,138.5914
95.2456,138.5701
95.3201,138.4956
95.3414,138.4586
95.3920,138.4104
95.4606,138.3972
95.5255,138.4232
95.5365,138.4329
96.0795,138.9759
96.0795,138.9759
96.1119,138.9313
96.2048,138.7490
96.2680,138.5544
96.3000,138.3523
96.3000,138.1477
96.2680,137.9456
96.2048,137.7510
96.2048,137.7510
96.2048,137.7510
96.1119,137.5686
96.1032,137.5567
96.0936,137.5299
96.0795,137.5241
95.5365,138.0671
95.4752,138.1005
95.4055,138.0956
95.3495,138.0537
95.3414,138.0414
95.3201,138.0044
95.2456,137.9299
95.2086,137.9086
95.1604,137.8580
95.1472,137.7894
95.1732,137.7245
95.1829,137.7135
95.7259,137.1705
95.7259,137.1705
95.7259,137.1705
95.7259,137.1705
95.7259,137.1705
95.6814,137.1381
95.6814,137.1381
95.6162,137.1049
95.4990,137.0452
95.3044,136.9820
95.3044,136.9820
95.1023,136.9500
95.1023,136.9500
94.8977,136.9500
94.8977,136.9500
94.6956,136.9820
94.6956,136.9820
94.6956,136.9820
94.5983,137.0136
94.5010,137.0452
94.3186,137.1381
94.2741,137.1705
94.2741,137.1705
94.8171,137.7135
94.8505,137.7748
94.8456,137.8445
94.8037,137.9004
94.7914,137.9086
94.7544,137.9299
94.7544,137.9299
94.6799,138.0044
94.6799,138.0044
94.6586,138.0414
94.6080,138.0896
94.5394,138.1028
94.4745,138.0768
94.4635,138.0671
93.9205,137.5241
93.9205,137.5241
93.9205,137.5241
93.8881,137.5686
93.7952,137.7510
93.7648,137.8445
93.7320,137.9456
93.7320,137.9456
93.7320,137.9456
93.7000,138.1477
83.2057,138.1477
87.2164,136.5137
87.2393,136.5069
87.2625,136.5023
87.2863,136.5000
97.3582,136.5000
Z" /> 
<path style="fill:#FFFFFF; fill-opacity:1.0000; stroke:none;fill-rule:evenodd;"
d="M 104.8440,116.7702
104.9132,116.8254
104.9516,116.9052
104.9516,116.9938
104.9132,117.0736
104.8983,117.0902
102.6524,119.3361
102.5775,119.3832
102.5117,119.3944
102.1260,119.3944
102.0845,119.3972
102.0845,119.3972
101.9050,119.4419
101.7392,119.5240
101.6550,119.5918
101.5981,119.6375
101.5867,119.6467
101.5851,119.6448
101.5239,119.6832
101.4582,119.6944
96.1185,119.6944
95.9474,119.7215
95.9474,119.7215
95.7827,119.7750
95.7827,119.7750
95.6283,119.8537
95.6283,119.8537
95.4882,119.9555
95.4882,119.9555
95.1024,120.3412
95.0275,120.3883
94.9617,120.3995
94.0260,120.3995
93.9845,120.4023
93.9845,120.4023
93.8050,120.4470
93.6392,120.5292
93.5441,120.6056
93.4645,120.6443
93.4195,120.6495
90.9326,120.6495
90.8463,120.6298
90.8157,120.6115
90.7340,120.5522
90.7340,120.5522
90.7340,120.5522
90.5376,120.4521
90.5376,120.4521
90.5376,120.4521
90.3280,120.3840
90.3279,120.3840
90.1102,120.3495
89.8898,120.3495
89.6720,120.3840
89.6720,120.3840
89.4624,120.4521
89.4624,120.4521
89.2660,120.5522
89.0876,120.6818
88.9318,120.8376
88.8022,121.0160
88.7021,121.2124
88.7021,121.2124
88.6340,121.4220
88.6340,121.4220
88.6182,121.5216
88.5995,121.6398
88.5995,121.8602
88.6051,121.8954
88.6340,122.0779
88.6340,122.0780
88.7021,122.2876
88.7021,122.2876
88.7098,122.3026
88.8022,122.4840
88.9318,122.6624
89.0876,122.8182
89.2660,122.9478
89.4624,123.0479
89.4624,123.0479
89.4624,123.0479
89.6720,123.1160
89.6720,123.1160
89.6720,123.1160
89.8898,123.1505
90.1102,123.1505
90.3280,123.1160
90.5376,123.0479
90.7340,122.9478
90.8157,122.8885
90.8971,122.8537
90.9326,122.8505
93.0505,122.8505
93.1368,122.8702
93.2061,122.9254
93.2445,123.0052
93.2495,123.0495
93.2495,123.3240
93.2523,123.3655
93.2523,123.3655
93.2970,123.5450
93.3792,123.7108
93.4291,123.7728
93.4951,123.8549
93.5595,123.9067
93.6392,123.9708
93.6392,123.9708
93.6392,123.9708
93.8050,124.0530
93.9845,124.0977
94.0122,124.0996
94.0260,124.1005
94.0260,124.1005
95.4740,124.1005
95.4843,124.0998
95.5155,124.0977
95.6950,124.0530
95.8608,123.9708
96.0049,123.8549
96.1208,123.7108
96.2030,123.5450
96.2477,123.3655
96.2505,123.3240
96.2505,122.3883
96.2702,122.3019
96.3088,122.2476
96.6027,121.9537
96.6777,121.9066
96.7434,121.8954
101.4246,121.8954
101.5109,121.9151
101.5801,121.9703
101.6186,122.0501
101.6186,122.1387
101.6019,122.1847
101.5452,122.2959
101.5452,122.2959
101.4820,122.4905
101.4820,122.4905
101.4500,122.6926
101.4500,122.8972
101.4820,123.0993
101.4820,123.0993
101.5452,123.2939
101.5452,123.2939
101.6381,123.4762
101.6705,123.5208
101.6705,123.5208
102.3500,122.8413
102.3500,122.8475
102.3773,122.9493
102.4299,123.0405
102.5044,123.1150
102.5956,123.1676
102.6973,123.1949
102.7036,123.1949
102.0241,123.8744
102.0241,123.8744
102.0687,123.9067
102.2510,123.9996
102.2510,123.9996
102.4456,124.0629
102.4456,124.0629
102.6477,124.0949
102.8523,124.0949
103.0544,124.0629
103.0544,124.0629
103.2490,123.9996
103.2490,123.9996
103.4313,123.9067
103.4759,123.8744
103.4759,123.8744
102.7964,123.1949
102.8027,123.1949
102.9044,123.1676
102.9956,123.1150
103.0701,123.0405
103.1227,122.9493
103.1500,122.8475
103.1500,122.8413
103.8295,123.5208
103.8295,123.5208
103.8619,123.4762
103.9548,123.2939
103.9548,123.2939
104.0180,123.0993
104.0180,123.0993
104.0500,122.8972
104.0500,122.6926
104.0180,122.4905
104.0180,122.4905
103.9548,122.2959
103.9548,122.2959
103.8860,122.1608
103.8643,122.0750
103.8821,121.9882
103.9082,121.9458
104.0208,121.8056
104.1030,121.6399
104.1477,121.4604
104.1498,121.4292
104.1505,121.4188
104.1505,121.0332
104.1702,120.9468
104.2088,120.8924
106.4424,118.6588
106.5174,118.6117
106.5832,118.6005
123.0852,118.6005
123.1715,118.6202
123.2259,118.6588
124.5561,119.9890
124.6032,120.0640
124.6142,120.1370
124.6139,120.1464
124.6070,120.1986
124.6070,120.3321
124.6069,120.3358
124.5963,120.3751
124.5873,120.4148
124.5849,120.4177
124.5840,120.4214
124.5574,120.4522
124.5321,120.4840
124.5287,120.4857
124.5262,120.4885
124.4889,120.5048
124.4523,120.5225
124.4485,120.5225
124.4451,120.5240
124.4044,120.5225
124.3637,120.5225
124.3591,120.5208
124.3566,120.5207
124.3516,120.5181
124.3177,120.5058
124.2300,120.4611
124.2300,120.4611
124.0428,120.4003
124.0428,120.4003
123.8484,120.3695
123.6516,120.3695
123.4572,120.4003
123.4572,120.4003
123.2700,120.4611
123.2700,120.4611
123.0946,120.5505
123.0106,120.6115
122.9354,120.6662
122.9354,120.6662
122.9353,120.6662
122.9353,120.6662
122.7962,120.8053
122.7962,120.8053
122.6805,120.9646
122.5911,121.1400
122.5911,121.1400
122.5303,121.3272
122.5303,121.3272
122.5153,121.4220
122.4995,121.5216
122.4995,121.7184
122.5009,121.7271
122.5303,121.9128
122.5303,121.9128
122.5911,122.1000
122.5911,122.1000
122.5911,122.1000
122.5911,122.1000
122.6663,122.2476
122.6805,122.2754
122.6953,122.2959
122.7962,122.4346
122.7962,122.4346
122.7962,122.4347
122.9353,122.5738
122.9353,122.5738
122.9354,122.5738
123.0946,122.6895
123.2700,122.7789
123.4572,122.8397
123.4572,122.8397
123.4572,122.8397
123.6516,122.8705
123.8484,122.8705
124.0428,122.8397
124.0428,122.8397
124.0428,122.8397
124.2300,122.7789
124.4054,122.6895
124.4054,122.6895
124.4124,122.6860
124.4130,122.6872
124.4884,122.6618
124.5763,122.6726
124.6508,122.7206
124.6971,122.7961
124.7075,122.8597
124.7075,123.2900
128.7325,123.2900
128.7325,122.7302
128.7261,122.6706
128.7261,122.6706
128.6759,122.5359
128.6758,122.5359
128.6239,122.4665
128.5879,122.3855
128.5906,122.2970
128.6315,122.2184
128.6560,122.1950
128.6608,122.1903
128.6608,122.1903
128.7301,122.1000
128.7570,122.0648
128.7570,122.0648
128.7631,122.0501
128.8175,121.9188
128.8330,121.8014
128.8330,120.1986
128.8175,120.0812
128.8175,120.0812
128.8175,120.0812
128.7570,119.9352
128.7570,119.9352
128.6945,119.8537
128.6608,119.8097
128.6156,119.7750
128.5353,119.7135
128.5353,119.7135
128.3893,119.6530
128.3893,119.6530
128.2719,119.6375
128.2719,119.6375
127.3997,119.6375
127.3134,119.6178
127.2590,119.5792
124.7700,117.0902
124.7229,117.0152
124.7130,116.9272
124.7422,116.8436
124.8048,116.7810
124.8884,116.7518
124.9107,116.7505
135.1668,116.7505
135.2532,116.7702
135.3224,116.8254
135.3608,116.9052
135.3608,116.9938
135.3224,117.0736
135.3206,117.0757
135.2252,117.1921
135.2252,117.1921
135.0368,117.4739
134.8770,117.7729
134.7473,118.0861
134.7473,118.0862
134.6489,118.4106
134.6489,118.4106
134.5827,118.7431
134.5495,119.0805
134.5495,119.4195
134.5827,119.7569
134.6489,120.0894
134.6489,120.0894
134.7473,120.4138
134.7473,120.4139
134.8770,120.7271
135.0368,121.0261
135.1130,121.1400
135.2252,121.3079
135.2252,121.3079
135.2252,121.3079
135.3188,121.4220
135.4403,121.5700
135.4403,121.5700
135.4403,121.5700
135.6800,121.8097
135.6800,121.8097
135.6800,121.8097
135.9421,122.0248
136.1062,122.1345
136.2239,122.2132
136.4013,122.3079
136.5229,122.3730
136.8362,122.5027
137.1606,122.6011
137.4931,122.6673
137.8305,122.7005
137.8305,122.7005
138.1695,122.7005
138.1695,122.7005
138.5069,122.6673
138.8394,122.6011
139.1638,122.5027
139.4771,122.3730
139.7761,122.2132
140.0579,122.0248
140.3200,121.8097
140.3284,121.8014
140.4098,121.7200
140.4848,121.6728
140.5728,121.6629
140.6564,121.6922
140.7190,121.7548
140.7482,121.8384
140.7495,121.8607
140.7495,138.6393
140.7298,138.7257
140.6746,138.7949
140.5948,138.8333
140.5062,138.8333
140.4264,138.7949
140.4098,138.7800
140.3200,138.6903
140.3200,138.6903
140.3200,138.6903
140.1736,138.5701
140.0579,138.4752
140.0579,138.4752
140.0579,138.4752
139.8194,138.3158
139.7761,138.2868
139.4771,138.1270
139.1639,137.9973
139.1638,137.9973
139.1638,137.9973
139.1638,137.9973
139.1638,137.9973
138.8394,137.8989
138.8394,137.8989
138.8394,137.8989
138.8272,137.8964
138.5069,137.8327
138.1695,137.7995
138.1695,137.7995
137.8305,137.7995
137.8305,137.7995
137.4931,137.8327
137.1606,137.8989
137.1606,137.8989
136.8362,137.9973
136.8361,137.9973
136.5229,138.1270
136.2239,138.2868
135.9421,138.4752
135.9421,138.4752
135.6800,138.6903
135.6800,138.6903
135.4403,138.9300
135.4403,138.9300
135.2252,139.1921
135.2252,139.1921
135.0368,139.4739
134.8770,139.7729
134.7473,140.0861
134.7473,140.0862
134.6489,140.4106
134.6489,140.4106
134.5827,140.7431
134.5495,141.0805
134.5495,141.4195
134.5827,141.7569
134.6489,142.0894
134.6489,142.0894
134.7473,142.4138
134.7473,142.4139
134.8770,142.7271
135.0368,143.0261
135.1107,143.1366
135.2252,143.3079
135.2252,143.3079
135.2252,143.3079
135.3686,143.4827
135.4403,143.5700
135.4403,143.5700
135.4403,143.5700
135.5300,143.6598
135.5772,143.7348
135.5871,143.8228
135.5578,143.9064
135.4952,143.9690
135.4116,143.9982
135.3893,143.9995
98.7646,143.9995
98.6782,143.9798
98.6090,143.9246
98.5706,143.8448
98.5656,143.7961
98.5920,142.6105
98.6136,142.5246
98.6704,142.4566
98.7510,142.4200
98.8395,142.4219
98.9184,142.4621
98.9231,142.4661
99.1440,142.6624
99.7600,142.0464
99.7600,142.0527
99.7873,142.1544
99.8399,142.2456
99.9144,142.3201
100.0056,142.3727
100.1073,142.4000
100.1136,142.4000
99.4341,143.0795
99.4341,143.0795
99.4787,143.1119
99.6610,143.2048
99.6610,143.2048
99.8556,143.2680
99.8556,143.2680
100.0577,143.3000
100.2623,143.3000
100.4644,143.2680
100.4644,143.2680
100.6590,143.2048
100.6590,143.2048
100.8413,143.1119
100.8859,143.0795
100.8859,143.0795
100.2064,142.4000
100.2127,142.4000
100.3144,142.3727
100.4056,142.3201
100.4801,142.2456
100.5327,142.1544
100.5600,142.0527
100.5600,142.0464
101.2395,142.7259
101.2395,142.7259
101.2719,142.6813
101.3648,142.4990
101.3648,142.4990
101.4280,142.3044
101.4280,142.3044
101.4600,142.1023
101.4600,141.8977
101.4280,141.6956
101.4280,141.6956
101.3648,141.5010
101.3648,141.5010
101.2719,141.3187
101.2395,141.2741
100.5600,141.9536
100.5600,141.9473
100.5327,141.8456
100.4801,141.7544
100.4056,141.6799
100.3144,141.6273
100.2127,141.6000
100.2064,141.6000
100.8859,140.9205
100.8413,140.8881
100.7342,140.8335
100.7342,140.8335
100.6590,140.7952
100.6590,140.7952
100.4644,140.7320
100.4644,140.7320
100.2623,140.7000
100.0577,140.7000
99.8556,140.7320
99.8556,140.7320
99.6610,140.7952
99.6610,140.7952
99.4787,140.8881
99.4786,140.8881
99.4341,140.9205
100.1136,141.6000
100.1073,141.6000
100.0056,141.6273
99.9144,141.6799
99.8399,141.7544
99.7873,141.8456
99.7600,141.9473
99.7600,141.9536
99.0805,141.2741
99.0481,141.3186
99.0481,141.3187
98.9968,141.4194
98.9401,141.4873
98.8594,141.5240
98.7709,141.5220
98.6920,141.4818
98.6383,141.4113
98.6206,141.3246
98.6685,139.1669
98.6901,139.0811
98.7469,139.0131
98.8275,138.9764
98.8831,138.9730
98.9205,138.9759
99.6000,138.2964
99.6000,138.3027
99.6273,138.4044
99.6799,138.4956
99.7544,138.5701
99.8456,138.6227
99.9473,138.6500
99.9536,138.6500
99.2741,139.3295
99.2741,139.3295
99.3187,139.3619
99.5010,139.4548
99.5010,139.4548
99.6956,139.5180
99.6956,139.5180
99.8977,139.5500
100.1023,139.5500
100.3044,139.5180
100.3044,139.5180
100.4990,139.4548
100.4990,139.4548
100.6813,139.3619
100.7259,139.3295
100.7259,139.3295
100.0464,138.6500
100.0527,138.6500
100.1544,138.6227
100.2456,138.5701
100.3201,138.4956
100.3727,138.4044
100.4000,138.3027
100.4000,138.2964
101.0795,138.9759
101.0795,138.9759
101.1119,138.9313
101.2048,138.7490
101.2048,138.7490
101.2680,138.5544
101.2680,138.5544
101.3000,138.3523
101.3000,138.1477
101.2680,137.9456
101.2680,137.9456
101.2048,137.7510
101.2048,137.7510
101.1119,137.5687
101.0795,137.5241
100.4000,138.2036
100.4000,138.1973
100.3727,138.0956
100.3201,138.0044
100.2456,137.9299
100.1544,137.8773
100.0527,137.8500
100.0464,137.8500
100.7259,137.1705
100.6813,137.1381
100.4990,137.0452
100.4990,137.0452
100.3044,136.9820
100.3044,136.9820
100.1023,136.9500
99.8977,136.9500
99.6956,136.9820
99.6956,136.9820
99.5010,137.0452
99.5010,137.0452
99.3187,137.1381
99.3186,137.1381
99.2741,137.1705
99.9536,137.8500
99.9473,137.8500
99.8456,137.8773
99.7544,137.9299
99.6799,138.0044
99.6273,138.0956
99.6000,138.1973
99.6000,138.2036
98.9196,137.5231
98.8365,137.5109
98.7631,137.4613
98.7185,137.3848
98.7095,137.3210
98.7500,135.5000
98.7500,135.5000
98.7500,135.5000
86.2500,135.7500
86.2500,135.7500
83.8094,136.7599
83.7221,136.7747
83.6370,136.7501
83.5710,136.6911
83.5372,136.6093
83.5421,136.5208
83.5657,136.4688
83.5708,136.4608
83.5708,136.4608
83.5708,136.4608
83.6530,136.2950
83.6977,136.1155
83.7005,136.0740
83.7005,135.4260
83.6977,135.3845
83.6530,135.2050
83.5708,135.0392
83.5681,135.0359
83.5152,134.9700
83.4549,134.8951
83.3667,134.8241
83.3108,134.7792
83.1450,134.6970
82.9655,134.6523
82.9655,134.6523
82.9240,134.6495
82.9240,134.6495
81.1995,134.6495
81.1132,134.6298
81.0439,134.5746
81.0055,134.4948
81.0005,134.4505
81.0005,134.1500
83.6027,134.1500
83.6029,134.1525
83.6029,134.1525
83.6487,134.3102
83.7323,134.4516
83.8484,134.5677
83.9898,134.6513
84.1475,134.6971
84.1475,134.6971
84.1844,134.7000
84.7000,134.7000
84.7000,134.1500
83.6027,134.1500
81.0005,134.1500
81.0005,129.9500
83.4995,129.9500
83.4995,129.9500
83.4995,129.9500
83.4995,130.3500
83.4995,130.3500
83.5100,130.4528
83.5652,130.6193
83.5652,130.6193
83.5968,130.6705
83.6253,130.7544
83.6147,130.8423
83.5968,130.8795
83.5652,130.9307
83.5652,130.9307
83.5100,131.0972
83.5100,131.0972
83.5100,131.0972
83.4995,131.2000
83.4995,131.2000
83.4995,131.2000
83.4995,131.6000
83.4995,131.6000
83.5100,131.7028
83.5652,131.8693
83.5652,131.8693
83.5968,131.9205
83.6253,132.0044
83.6147,132.0923
83.5968,132.1295
83.5652,132.1807
83.5652,132.1807
83.5100,132.3472
83.5100,132.3472
83.5100,132.3472
83.4995,132.4500
83.4995,132.4500
83.4995,132.4500
83.4995,132.8500
83.4995,132.8500
83.5100,132.9528
83.5100,132.9528
83.5652,133.1193
83.6566,133.2675
83.6851,133.3513
83.6745,133.4393
83.6585,133.4733
83.6487,133.4898
83.6029,133.6475
83.6029,133.6475
83.6027,133.6500
83.6027,133.6500
84.6412,133.6500
84.7258,133.6689
84.7394,133.6752
84.7735,133.6980
84.8912,133.7468
84.9373,133.7659
84.9373,133.7659
84.9373,133.7659
84.9500,133.7684
84.9500,133.7684
85.1113,133.8005
85.1113,133.8005
85.1117,133.8006
85.1925,133.8367
85.2496,133.9044
85.2717,133.9902
85.2545,134.0770
85.2135,134.1365
85.2000,134.1500
85.2000,134.7000
85.7156,134.7000
85.7525,134.6971
85.9102,134.6513
86.0516,134.5677
86.1677,134.4516
86.2513,134.3102
86.2971,134.1525
86.2971,134.1525
86.2973,134.1500
86.2830,134.1346
86.2389,134.0578
86.2325,133.9695
86.2650,133.8871
86.3300,133.8270
86.4147,133.8010
86.4292,133.8005
87.4375,133.8005
87.5446,133.8005
87.6309,133.8202
87.6853,133.8588
87.7309,133.9044
87.7760,133.9495
87.7760,133.9495
87.9235,134.0480
87.9235,134.0480
87.9235,134.0480
87.9715,134.0679
88.0873,134.1159
88.1743,134.1332
88.2613,134.1505
88.2613,134.1505
88.2613,134.1505
91.3581,134.1505
91.4445,134.1702
91.4793,134.1916
91.5222,134.2245
91.5222,134.2245
91.6682,134.2850
91.7856,134.3005
93.2144,134.3005
93.3318,134.2850
93.3318,134.2850
93.3318,134.2850
93.3318,134.2850
93.4778,134.2245
93.4778,134.2245
93.4778,134.2245
93.5207,134.1916
93.6033,134.1283
93.6809,134.0271
93.6995,134.0028
93.6995,134.0028
93.7048,133.9902
93.7600,133.8568
93.7755,133.7394
93.7755,132.7606
93.7600,132.6432
93.7600,132.6432
93.7600,132.6432
93.6995,132.4972
93.6995,132.4972
93.6173,132.3900
93.6033,132.3717
93.5504,132.3312
93.4778,132.2755
93.4778,132.2755
93.3318,132.2150
93.3318,132.2150
93.2144,132.1995
93.2144,132.1995
91.7856,132.1995
91.6682,132.2150
91.6682,132.2150
91.6376,132.2277
91.5502,132.2425
91.4651,132.2180
91.4421,132.2000
90.4740,132.2000
90.3877,132.1803
90.3184,132.1251
90.2800,132.0453
90.2750,132.0010
90.2750,131.8990
90.2947,131.8127
90.3499,131.7434
90.4297,131.7050
90.4740,131.7000
91.4263,131.7000
91.4622,131.7082
91.4986,131.7136
91.5051,131.7180
91.5127,131.7197
91.5206,131.7239
91.5222,131.7245
91.5222,131.7245
91.6682,131.7850
91.7856,131.8005
93.2144,131.8005
93.3318,131.7850
93.3318,131.7850
93.3318,131.7850
93.3318,131.7850
93.4778,131.7245
93.4778,131.7245
93.4778,131.7245
93.5098,131.7000
93.6033,131.6283
93.6772,131.5320
93.6995,131.5028
93.6995,131.5028
93.7600,131.3568
93.7755,131.2394
93.7755,130.2606
95.7745,130.2606
95.7745,131.2394
95.7900,131.3568
95.8505,131.5028
95.8505,131.5028
95.9146,131.5865
95.9467,131.6283
96.0012,131.6701
96.0722,131.7245
96.0722,131.7245
96.2182,131.7850
96.3356,131.8005
97.7644,131.8005
97.8818,131.7850
97.9078,131.7743
97.9286,131.7656
98.0159,131.7508
98.1010,131.7753
98.1635,131.8312
98.8307,131.7519
98.9187,131.7613
98.9940,131.8079
99.0416,131.8826
99.0520,131.9706
99.0233,132.0543
98.9949,132.0902
98.8939,132.1912
98.8189,132.2383
98.7532,132.2495
98.0047,132.2495
97.9286,132.2344
97.8818,132.2150
97.7644,132.1995
97.7644,132.1995
96.3356,132.1995
96.2182,132.2150
96.2182,132.2150
96.0722,132.2755
96.0722,132.2755
95.9467,132.3717
95.8505,132.4972
95.8505,132.4972
95.7900,132.6432
95.7900,132.6432
95.7745,132.7606
95.7745,133.7394
95.7900,133.8568
95.8505,134.0028
95.8505,134.0028
95.9074,134.0770
95.9467,134.1283
96.0012,134.1701
96.0722,134.2245
96.0722,134.2245
96.2182,134.2850
96.3356,134.3005
97.7644,134.3005
97.8818,134.2850
97.9078,134.2743
97.9286,134.2656
98.0047,134.2505
99.3485,134.2505
99.3485,134.2505
99.4679,134.2268
99.5418,134.2121
99.5954,134.1899
99.7239,134.1366
99.8878,134.0271
100.0271,133.8878
100.0271,133.8878
100.0435,133.8714
100.0435,133.8714
102.2261,131.6888
102.3011,131.6417
102.3668,131.6305
104.4046,131.6305
104.4910,131.6502
104.5453,131.6888
104.6158,131.7593
104.6630,131.8343
104.6729,131.9223
104.6436,132.0059
104.6158,132.0407
104.5292,132.1273
104.3811,132.3312
104.2668,132.5556
104.2668,132.5556
104.1889,132.7952
104.1889,132.7952
104.1640,132.9528
104.1495,133.0440
104.1495,133.2960
104.1515,133.3086
104.1889,133.5448
104.1889,133.5448
104.2668,133.7844
104.2668,133.7844
104.3811,134.0088
104.3811,134.0088
104.3811,134.0088
104.4589,134.1159
104.5292,134.2127
104.6158,134.2993
104.6630,134.3743
104.6729,134.4623
104.6436,134.5459
104.6158,134.5807
104.5292,134.6673
104.3811,134.8712
104.2668,135.0956
104.2668,135.0956
104.1889,135.3352
104.1889,135.3352
104.1628,135.5000
104.1495,135.5840
104.1495,135.8360
104.1515,135.8486
104.1889,136.0848
104.1889,136.0848
104.2668,136.3244
104.2668,136.3244
104.3811,136.5488
104.3811,136.5488
104.3811,136.5488
104.4798,136.6847
104.5292,136.7527
104.7073,136.9308
104.7073,136.9308
104.7073,136.9308
104.9112,137.0789
104.9264,137.0867
104.9768,137.1233
105.6206,137.7670
105.5570,137.7841
105.4430,137.8499
105.3499,137.9430
105.2841,138.0570
105.2670,138.1206
104.5273,137.3809
104.4671,137.4638
104.3599,137.6742
104.3599,137.6742
104.2869,137.8987
104.2869,137.8988
104.2500,138.1319
104.2500,138.3681
104.2869,138.6012
104.2869,138.6013
104.3599,138.8258
104.3599,138.8258
104.4671,139.0362
104.5273,139.1191
105.2670,138.3794
105.2841,138.4430
105.3499,138.5570
105.4430,138.6501
105.5570,138.7159
105.6206,138.7330
104.9768,139.3767
104.9264,139.4133
104.9112,139.4211
104.9112,139.4211
104.7073,139.5692
104.5292,139.7473
104.3811,139.9512
104.2668,140.1756
104.2668,140.1756
104.1889,140.4152
104.1889,140.4152
104.1495,140.6640
104.1495,140.9160
104.1604,140.9848
104.1889,141.1648
104.1889,141.1648
104.2668,141.4044
104.2668,141.4044
104.3811,141.6288
104.3811,141.6288
104.3811,141.6288
104.4252,141.6895
104.5292,141.8327
104.7073,142.0108
104.7073,142.0108
104.7073,142.0108
104.9112,142.1589
104.9112,142.1589
104.9112,142.1589
105.1356,142.2732
105.1356,142.2732
105.1356,142.2732
105.3752,142.3511
105.6240,142.3905
105.6240,142.3905
105.8532,142.3905
105.9395,142.4102
105.9939,142.4488
106.4279,142.8828
106.4279,142.8828
106.4329,142.8878
106.5722,143.0271
106.6990,143.1119
106.7361,143.1366
106.7361,143.1366
106.8648,143.1900
106.9182,143.2121
106.9182,143.2121
106.9182,143.2121
106.9645,143.2213
106.9645,143.2213
107.1115,143.2505
107.1115,143.2505
116.8485,143.2505
116.8485,143.2505
116.9955,143.2213
117.0418,143.2121
117.0952,143.1900
117.2239,143.1366
117.3878,143.0271
117.5271,142.8878
117.5271,142.8878
117.5435,142.8714
117.5435,142.8714
120.5271,139.8878
120.6366,139.7239
120.7121,139.5418
120.7361,139.4211
120.7505,139.3485
120.7505,127.9968
120.7702,127.9105
120.8088,127.8561
121.5261,127.1388
121.6011,127.0917
121.6668,127.0805
124.5355,127.0805
124.6218,127.1002
124.6910,127.1554
124.6933,127.1584
124.7474,127.2289
124.7844,127.3094
124.7827,127.3979
124.7474,127.4711
124.6830,127.5552
124.6830,127.5552
124.6225,127.7012
124.6225,127.7012
124.6185,127.7314
124.6071,127.8182
124.6070,127.8186
124.6070,129.4214
124.6225,129.5388
124.6830,129.6848
124.6830,129.6848
124.7474,129.7689
124.7844,129.8494
124.7827,129.9379
124.7474,130.0111
124.6830,130.0952
124.6830,130.0952
124.6225,130.2412
124.6225,130.2412
124.6081,130.3500
124.6070,130.3586
124.6070,131.9614
124.6225,132.0788
124.6830,132.2248
124.6830,132.2248
124.7474,132.3089
124.7844,132.3894
124.7827,132.4779
124.7474,132.5511
124.6830,132.6352
124.6830,132.6352
124.6225,132.7812
124.6225,132.7812
124.6070,132.8986
124.6070,134.5014
124.6225,134.6188
124.6830,134.7648
124.6830,134.7648
124.7474,134.8489
124.7844,134.9294
124.7827,135.0179
124.7474,135.0911
124.6830,135.1752
124.6830,135.1752
124.6225,135.3212
124.6225,135.3212
124.6141,135.3845
124.6070,135.4386
124.6070,137.0414
124.6225,137.1588
124.6830,137.3048
124.6830,137.3048
124.7474,137.3889
124.7844,137.4694
124.7827,137.5579
124.7474,137.6311
124.6830,137.7152
124.6830,137.7152
124.6225,137.8612
124.6225,137.8612
124.6082,137.9695
124.6070,137.9786
124.6070,139.3285
124.5873,139.4148
124.5321,139.4840
124.4523,139.5225
124.3637,139.5225
124.3177,139.5058
124.2300,139.4611
124.2300,139.4611
124.0428,139.4003
124.0428,139.4003
123.8484,139.3695
123.6516,139.3695
123.4572,139.4003
123.4572,139.4003
123.2700,139.4611
123.2700,139.4611
123.0946,139.5505
122.9901,139.6264
122.9354,139.6662
122.9354,139.6662
122.9353,139.6662
122.9353,139.6662
122.7962,139.8053
122.7962,139.8053
122.6805,139.9646
122.5911,140.1400
122.5911,140.1400
122.5303,140.3272
122.5303,140.3272
122.4995,140.5216
122.4995,140.7184
122.5303,140.9128
122.5303,140.9128
122.5911,141.1000
122.5911,141.1000
122.5911,141.1000
122.5911,141.1000
122.6805,141.2754
122.7962,141.4346
122.7962,141.4347
122.7962,141.4347
122.9353,141.5738
122.9353,141.5738
122.9354,141.5738
123.0946,141.6895
123.2700,141.7789
123.4572,141.8397
123.4572,141.8397
123.4572,141.8397
123.6516,141.8705
123.8484,141.8705
124.0428,141.8397
124.0428,141.8397
124.0428,141.8397
124.2300,141.7789
124.4054,141.6895
124.5646,141.5738
124.7038,141.4346
124.8195,141.2754
124.9089,141.1000
124.9697,140.9128
124.9702,140.9098
124.9966,140.7431
125.0005,140.7184
125.0005,140.5216
124.9769,140.3726
124.9829,140.2843
125.0266,140.2072
125.0994,140.1568
125.1735,140.1425
128.2719,140.1425
128.3893,140.1270
128.3893,140.1270
128.3893,140.1270
128.3893,140.1270
128.5353,140.0665
128.5353,140.0665
128.5353,140.0665
128.5800,140.0322
128.6608,139.9703
128.7347,139.8740
128.7570,139.8448
128.7570,139.8448
128.8175,139.6988
128.8330,139.5814
128.8330,137.9786
128.8175,137.8612
128.8175,137.8612
128.8175,137.8612
128.7719,137.7510
128.7570,137.7152
128.6926,137.6311
128.6556,137.5506
128.6573,137.4621
128.6904,137.3917
128.6915,137.3903
128.7570,137.3048
128.7601,137.2976
128.7722,137.2812
128.7974,137.2595
128.8201,137.2351
128.8307,137.2309
128.8394,137.2235
128.8715,137.2149
128.9025,137.2027
128.9228,137.2012
128.9249,137.2006
128.9265,137.2009
128.9322,137.2005
130.5460,137.2005
130.6324,137.2202
130.6868,137.2588
130.7573,137.3293
130.8044,137.4043
130.8143,137.4923
130.7850,137.5759
130.7573,137.6107
130.6055,137.7625
130.4667,137.9536
130.3594,138.1640
130.3594,138.1640
130.2864,138.3886
130.2864,138.3886
130.2495,138.6219
130.2495,138.8581
130.2864,139.0914
130.2864,139.0914
130.3594,139.3160
130.3594,139.3160
130.4667,139.5264
130.6055,139.7175
130.6055,139.7175
130.7725,139.8845
130.7725,139.8845
130.9636,140.0233
131.1740,140.1306
131.1740,140.1306
131.1740,140.1306
131.3986,140.2036
131.3986,140.2036
131.3986,140.2036
131.6319,140.2405
131.8681,140.2405
132.1014,140.2036
132.1014,140.2036
132.1014,140.2036
132.3260,140.1306
132.5364,140.0233
132.6420,139.9467
132.7275,139.8845
132.7275,139.8845
132.8945,139.7175
132.8945,139.7175
132.9934,139.5814
133.0333,139.5264
133.1406,139.3160
133.2136,139.0914
133.2505,138.8581
133.2505,138.6219
133.2217,138.4403
133.2136,138.3886
133.2136,138.3886
133.2043,138.3602
133.1406,138.1640
133.1406,138.1640
133.1406,138.1640
133.0333,137.9536
132.8945,137.7625
132.8945,137.7625
132.7427,137.6107
132.6956,137.5357
132.6857,137.4477
132.7150,137.3641
132.7427,137.3293
132.8945,137.1775
132.8945,137.1775
132.9875,137.0495
133.0333,136.9864
133.1406,136.7760
133.2136,136.5514
133.2505,136.3181
133.2505,136.0819
133.2136,135.8486
133.1406,135.6240
133.1406,135.6240
133.1406,135.6240
133.0333,135.4136
132.8945,135.2225
132.8945,135.2225
132.7427,135.0707
132.6956,134.9957
132.6857,134.9077
132.7150,134.8241
132.7427,134.7893
132.8945,134.6375
132.8945,134.6375
132.9934,134.5014
133.0333,134.4464
133.1406,134.2360
133.2136,134.0114
133.2505,133.7781
133.2505,133.5419
133.2136,133.3086
133.1406,133.0840
133.1406,133.0840
133.1406,133.0840
133.0333,132.8736
132.8945,132.6825
132.8945,132.6825
132.7427,132.5307
132.6956,132.4557
132.6857,132.3677
132.7150,132.2841
132.7427,132.2493
132.8945,132.0975
132.8945,132.0975
132.9934,131.9614
133.0333,131.9064
133.1406,131.6960
133.2136,131.4714
133.2505,131.2381
133.2505,131.0019
133.2408,130.9405
133.2136,130.7686
133.2136,130.7686
133.1817,130.6705
133.1406,130.5440
133.1406,130.5440
133.1406,130.5440
133.0333,130.3336
132.8945,130.1425
132.8945,130.1425
132.7427,129.9907
132.6956,129.9157
132.6857,129.8277
132.7150,129.7441
132.7427,129.7093
132.8945,129.5575
132.8945,129.5575
132.9934,129.4214
133.0333,129.3664
133.1406,129.1560
133.2136,128.9314
133.2505,128.6981
133.2505,128.4619
133.2136,128.2286
133.1406,128.0040
133.1406,128.0040
133.1406,128.0040
133.0333,127.7936
132.8945,127.6025
132.8945,127.6025
132.7427,127.4507
132.6956,127.3757
132.6857,127.2877
132.7150,127.2041
132.7427,127.1693
132.8945,127.0175
132.8945,127.0175
132.9934,126.8814
133.0333,126.8264
133.1406,126.6160
133.2136,126.3914
133.2505,126.1581
133.2505,125.9219
133.2136,125.6886
133.1406,125.4640
133.1406,125.4640
133.1406,125.4640
133.0333,125.2536
132.8945,125.0625
132.8945,125.0625
132.7275,124.8955
132.6758,124.8579
132.6292,124.8241
132.5709,124.7574
132.5474,124.6720
132.5477,124.6513
131.8794,123.9830
131.9430,123.9659
132.0570,123.9001
132.1501,123.8070
132.2159,123.6930
132.2330,123.6294
132.9011,124.2975
132.9011,124.2975
132.9474,124.2338
133.0474,124.0374
133.0474,124.0374
133.1155,123.8278
133.1155,123.8278
133.1500,123.6102
133.1500,123.3898
133.1155,123.1722
133.1155,123.1722
133.0474,122.9626
133.0474,122.9626
132.9474,122.7662
132.9011,122.7025
132.2330,123.3706
132.2159,123.3070
132.1501,123.1930
132.0570,123.0999
131.9430,123.0341
131.8794,123.0170
132.5475,122.3489
132.5475,122.3489
132.4838,122.3026
132.4837,122.3026
132.2874,122.2026
132.2874,122.2026
132.0778,122.1345
132.0778,122.1345
131.8602,122.1000
131.6398,122.1000
131.4222,122.1345
131.4222,122.1345
131.2126,122.2026
131.2126,122.2026
131.0162,122.3026
131.0162,122.3026
130.9525,122.3489
131.6206,123.0170
131.5570,123.0341
131.4430,123.0999
131.3499,123.1930
131.2841,123.3070
131.2670,123.3706
130.5989,122.7025
130.5526,122.7662
130.5526,122.7662
130.4526,122.9626
130.4526,122.9626
130.3845,123.1722
130.3845,123.1722
130.3500,123.3898
130.3500,123.6102
130.3845,123.8278
130.3845,123.8278
130.4526,124.0374
130.4526,124.0374
130.5526,124.2337
130.5526,124.2338
130.5989,124.2975
130.5989,124.2975
131.2670,123.6294
131.2841,123.6930
131.3499,123.8070
131.4430,123.9001
131.5570,123.9659
131.6206,123.9830
130.9515,124.6520
130.9393,124.7351
130.8897,124.8084
130.8830,124.8144
130.8771,124.8195
130.7725,124.8955
130.6812,124.9868
130.6753,124.9918
130.6428,125.0088
130.6118,125.0283
130.6026,125.0299
130.5968,125.0329
130.5818,125.0334
130.5460,125.0395
128.8738,125.0395
128.7875,125.0198
128.7183,124.9646
128.7160,124.9617
128.6608,124.8897
128.6608,124.8897
128.6608,124.8897
128.6516,124.8805
128.6527,124.8794
128.6055,124.8225
128.5842,124.7365
128.6023,124.6498
128.6239,124.6135
128.6759,124.5441
128.6759,124.5441
128.7261,124.4094
128.7261,124.4094
128.7325,124.3498
128.7325,123.7900
124.7075,123.7900
124.7075,124.3498
124.7139,124.4094
124.7139,124.4094
124.7641,124.5441
124.7641,124.5441
124.8161,124.6135
124.8521,124.6945
124.8494,124.7830
124.8106,124.8591
124.7961,124.8768
124.7792,124.8897
124.6913,125.0043
124.6892,125.0068
124.6568,125.0320
124.6251,125.0581
124.6218,125.0590
124.6192,125.0610
124.5790,125.0696
124.5392,125.0795
124.5355,125.0795
121.0715,125.0795
120.8782,125.1179
120.8248,125.1400
120.8248,125.1400
120.7063,125.1892
120.6961,125.1934
120.5322,125.3029
120.5322,125.3029
118.9729,126.8622
118.9729,126.8622
118.8634,127.0261
118.8634,127.0261
118.8160,127.1406
118.8159,127.1406
118.8126,127.1488
118.7879,127.2082
118.7781,127.2575
118.7761,127.2680
118.7761,127.2680
118.7495,127.4015
118.7495,138.7532
118.7298,138.8395
118.6912,138.8939
117.8402,139.7449
117.7652,139.7920
117.6772,139.8019
117.5936,139.7726
117.5310,139.7100
117.5018,139.6264
117.5005,139.6042
117.5005,139.5753
117.5005,139.5753
117.4855,139.4611
117.4705,139.3478
117.4112,139.1261
117.3233,138.9141
117.2910,138.8581
117.2086,138.7154
117.2086,138.7154
117.2086,138.7154
117.2086,138.7154
117.0689,138.5333
117.0689,138.5333
117.0689,138.5333
116.9067,138.3711
116.8822,138.3523
116.7246,138.2314
116.7246,138.2314
116.7246,138.2314
116.7246,138.2314
116.5259,138.1167
116.5259,138.1167
116.3139,138.0288
116.3139,138.0288
116.0922,137.9695
115.8647,137.9395
115.8647,137.9395
115.6353,137.9395
115.6353,137.9395
115.4078,137.9695
115.4078,137.9695
115.1861,138.0288
115.1861,138.0288
114.9741,138.1167
114.9741,138.1167
114.7754,138.2314
114.7754,138.2314
114.5933,138.3711
114.5933,138.3711
114.4311,138.5333
114.4311,138.5333
114.2914,138.7154
114.2914,138.7154
114.1767,138.9141
114.1767,138.9141
114.0888,139.1261
114.0888,139.1261
114.0295,139.3478
114.0295,139.3478
113.9995,139.5753
113.9995,139.8047
114.0295,140.0322
114.0295,140.0322
114.0888,140.2539
114.0888,140.2539
114.0888,140.2539
114.1557,140.4152
114.1767,140.4659
114.1767,140.4659
114.2914,140.6646
114.2914,140.6646
114.2914,140.6646
114.2914,140.6646
114.3916,140.7952
114.4311,140.8467
114.4942,140.9098
114.5413,140.9848
114.5512,141.0728
114.5220,141.1564
114.4594,141.2190
114.3758,141.2482
114.3535,141.2495
107.7068,141.2495
107.6205,141.2298
107.5661,141.1912
107.4088,141.0339
107.3617,140.9589
107.3505,140.8932
107.3505,140.6640
107.3234,140.4931
107.3111,140.4152
107.2332,140.1756
107.2332,140.1756
107.2332,140.1756
107.1189,139.9512
107.1189,139.9512
107.1189,139.9512
106.9708,139.7473
106.9708,139.7473
106.9708,139.7473
106.7927,139.5692
106.5888,139.4211
106.5888,139.4211
106.5736,139.4133
106.5232,139.3767
105.8794,138.7330
105.9430,138.7159
106.0570,138.6501
106.1501,138.5570
106.2159,138.4430
106.2330,138.3794
106.9727,139.1191
106.9727,139.1191
107.0329,139.0362
107.1401,138.8258
107.1401,138.8258
107.2131,138.6013
107.2131,138.6012
107.2500,138.3681
107.2500,138.1319
107.2131,137.8988
107.2131,137.8987
107.1401,137.6742
107.1401,137.6742
107.0666,137.5298
107.0449,137.4440
107.0627,137.3572
107.1163,137.2867
107.1952,137.2465
107.2439,137.2405
108.5655,137.2405
108.6518,137.2602
108.7210,137.3154
108.7233,137.3184
108.7774,137.3889
108.8144,137.4694
108.8127,137.5579
108.7774,137.6311
108.7130,137.7152
108.7130,137.7152
108.6525,137.8612
108.6525,137.8612
108.6382,137.9695
108.6370,137.9786
108.6370,139.5814
108.6525,139.6988
108.7130,139.8448
108.7130,139.8448
108.7771,139.9285
108.8092,139.9703
108.8637,140.0121
108.9347,140.0665
108.9347,140.0665
109.0807,140.1270
109.1981,140.1425
112.3019,140.1425
112.4193,140.1270
112.4193,140.1270
112.4193,140.1270
112.4193,140.1270
112.5653,140.0665
112.5653,140.0665
112.5653,140.0665
112.6100,140.0322
112.6908,139.9703
112.7647,139.8740
112.7870,139.8448
112.7870,139.8448
112.8475,139.6988
112.8630,139.5814
112.8630,137.9786
112.8475,137.8612
112.8475,137.8612
112.8475,137.8612
112.7870,137.7152
112.7870,137.7152
112.7226,137.6311
112.6856,137.5506
112.6873,137.4621
112.7226,137.3889
112.7870,137.3048
112.7870,137.3048
112.7945,137.2867
112.8475,137.1588
112.8630,137.0414
112.8630,135.4386
112.8475,135.3212
112.8475,135.3212
112.8475,135.3212
112.7870,135.1752
112.7870,135.1752
112.7309,135.1020
112.7226,135.0911
112.6856,135.0106
112.6873,134.9221
112.7226,134.8489
112.7870,134.7648
112.7870,134.7648
112.7945,134.7467
112.8475,134.6188
112.8630,134.5014
112.8630,132.8986
112.8475,132.7812
112.8475,132.7812
112.8475,132.7812
112.7870,132.6352
112.7870,132.6352
112.7309,132.5620
112.7226,132.5511
112.6856,132.4706
112.6873,132.3821
112.7226,132.3089
112.7870,132.2248
112.7870,132.2248
112.7890,132.2200
112.8475,132.0788
112.8630,131.9614
112.8630,130.3586
112.8475,130.2412
112.8475,130.2412
112.8475,130.2412
112.7870,130.0952
112.7870,130.0952
112.7312,130.0223
112.7226,130.0111
112.6856,129.9306
112.6873,129.8421
112.7226,129.7689
112.7870,129.6848
112.7870,129.6848
112.7888,129.6807
112.8475,129.5388
112.8630,129.4214
112.8630,129.0753
113.9995,129.0753
113.9995,129.3047
114.0295,129.5322
114.0295,129.5322
114.0888,129.7539
114.0888,129.7539
114.0888,129.7539
114.1312,129.8562
114.1767,129.9659
114.1767,129.9659
114.2914,130.1646
114.2914,130.1646
114.2914,130.1646
114.2914,130.1646
114.3651,130.2606
114.4311,130.3467
114.5933,130.5089
114.5933,130.5089
114.5933,130.5089
114.7754,130.6486
114.7754,130.6486
114.7754,130.6486
114.7754,130.6486
114.9586,130.7544
114.9741,130.7633
115.1861,130.8512
115.4078,130.9105
115.5605,130.9307
115.6353,130.9405
115.6353,130.9405
115.6353,130.9405
115.8647,130.9405
115.8647,130.9405
116.0922,130.9105
116.3139,130.8512
116.5259,130.7633
116.6866,130.6705
116.7246,130.6486
116.7246,130.6486
116.7246,130.6486
116.9067,130.5089
116.9067,130.5089
116.9067,130.5089
117.0689,130.3467
117.0689,130.3467
117.0689,130.3467
117.2086,130.1646
117.2086,130.1646
117.2086,130.1646
117.2796,130.0416
117.3233,129.9659
117.4112,129.7539
117.4705,129.5322
117.5005,129.3047
117.5005,129.0753
117.4705,128.8478
117.4217,128.6655
117.4112,128.6261
117.4112,128.6261
117.4112,128.6261
117.3233,128.4141
117.3146,128.3990
117.2086,128.2154
117.2086,128.2154
117.2086,128.2154
117.2086,128.2154
117.0689,128.0333
117.0689,128.0333
117.0689,128.0333
116.9067,127.8711
116.8692,127.8423
116.7246,127.7314
116.7246,127.7314
116.7246,127.7314
116.7246,127.7314
116.5259,127.6167
116.5259,127.6167
116.4358,127.5793
116.3139,127.5288
116.3139,127.5288
116.3139,127.5288
116.0922,127.4695
115.8647,127.4395
115.8647,127.4395
115.6353,127.4395
115.6353,127.4395
115.4078,127.4695
115.4078,127.4695
115.1861,127.5288
115.1861,127.5288
114.9741,127.6167
114.9741,127.6167
114.7754,127.7314
114.7754,127.7314
114.5933,127.8711
114.5933,127.8711
114.4311,128.0333
114.4311,128.0333
114.2914,128.2154
114.2914,128.2154
114.1767,128.4141
114.1767,128.4141
114.0888,128.6261
114.0888,128.6261
114.0295,128.8478
114.0295,128.8478
113.9995,129.0753
112.8630,129.0753
112.8630,128.4648
112.8630,127.8186
112.8630,127.8186
112.8475,127.7012
112.8475,127.7012
112.8475,127.7012
112.7870,127.5552
112.7870,127.5552
112.7312,127.4823
112.7226,127.4711
112.6856,127.3906
112.6873,127.3021
112.7226,127.2289
112.7870,127.1448
112.7870,127.1448
112.7895,127.1388
112.8475,126.9988
112.8630,126.8814
112.8630,125.2786
112.8475,125.1612
112.8475,125.1612
112.8475,125.1612
112.7870,125.0152
112.7870,125.0152
112.7226,124.9311
112.6856,124.8506
112.6873,124.7621
112.7226,124.6889
112.7870,124.6048
112.7870,124.6048
112.7988,124.5764
112.8475,124.4588
112.8630,124.3414
112.8630,122.7386
112.8475,122.6212
112.8475,122.6212
112.8475,122.6212
112.7870,122.4752
112.7870,122.4752
112.7226,122.3911
112.6856,122.3106
112.6873,122.2221
112.7226,122.1489
112.7233,122.1479
112.7401,122.1260
112.7870,122.0648
112.7870,122.0648
112.7931,122.0501
112.8475,121.9188
112.8630,121.8014
112.8630,120.1986
112.8475,120.0812
112.8475,120.0812
112.8475,120.0812
112.7870,119.9352
112.7870,119.9352
112.7245,119.8537
112.6908,119.8097
112.6456,119.7750
112.5653,119.7135
112.5653,119.7135
112.4193,119.6530
112.4193,119.6530
112.3019,119.6375
112.3019,119.6375
109.1981,119.6375
109.0807,119.6530
109.0807,119.6530
108.9347,119.7135
108.9347,119.7135
108.8092,119.8097
108.7130,119.9352
108.7130,119.9352
108.6525,120.0812
108.6525,120.0812
108.6370,120.1986
108.6370,121.8014
108.6525,121.9188
108.7130,122.0648
108.7130,122.0648
108.7774,122.1489
108.8144,122.2294
108.8127,122.3179
108.7774,122.3911
108.7130,122.4752
108.7130,122.4752
108.6525,122.6212
108.6525,122.6212
108.6380,122.7310
108.6370,122.7386
108.6370,124.3414
108.6525,124.4588
108.7130,124.6048
108.7130,124.6048
108.7774,124.6889
108.8144,124.7694
108.8127,124.8579
108.7774,124.9311
108.7130,125.0152
108.7130,125.0152
108.6525,125.1612
108.6525,125.1612
108.6370,125.2786
108.6370,126.8814
108.6525,126.9988
108.7130,127.1448
108.7130,127.1448
108.7774,127.2289
108.8144,127.3094
108.8127,127.3979
108.7774,127.4711
108.7130,127.5552
108.7130,127.5552
108.6525,127.7012
108.6525,127.7012
108.6485,127.7314
108.6371,127.8182
108.6370,127.8186
108.6370,129.4214
108.6525,129.5388
108.7130,129.6848
108.7130,129.6848
108.7774,129.7689
108.8144,129.8494
108.8127,129.9379
108.7774,130.0111
108.7130,130.0952
108.7130,130.0952
108.6525,130.2412
108.6525,130.2412
108.6381,130.3500
108.6370,130.3586
108.6370,131.9614
108.6525,132.0788
108.7130,132.2248
108.7130,132.2248
108.7774,132.3089
108.8144,132.3894
108.8127,132.4779
108.7774,132.5511
108.7233,132.6216
108.6551,132.6781
108.5692,132.6995
108.5655,132.6995
107.4246,132.6995
107.3382,132.6798
107.2690,132.6246
107.2353,132.5620
107.2332,132.5556
107.1189,132.3312
106.9708,132.1273
106.9708,132.1273
106.9708,132.1273
106.8842,132.0407
106.8370,131.9657
106.8271,131.8777
106.8564,131.7941
106.8842,131.7593
106.9708,131.6727
106.9708,131.6727
107.1189,131.4688
107.2332,131.2444
107.3111,131.0048
107.3505,130.7560
107.3505,130.5040
107.3111,130.2552
107.2332,130.0156
107.2332,130.0156
107.2332,130.0156
107.1189,129.7912
107.1189,129.7912
107.1189,129.7912
106.9708,129.5873
106.9708,129.5873
106.9708,129.5873
106.8842,129.5007
106.8370,129.4257
106.8271,129.3377
106.8564,129.2541
106.8842,129.2193
106.9708,129.1327
106.9708,129.1327
107.1189,128.9288
107.2332,128.7044
107.3111,128.4648
107.3505,128.2160
107.3505,127.9640
107.3111,127.7152
107.2332,127.4756
107.2332,127.4756
107.2332,127.4756
107.1189,127.2512
107.1189,127.2512
107.1189,127.2512
106.9708,127.0473
106.9708,127.0473
106.9708,127.0473
106.7927,126.8692
106.7247,126.8198
106.5888,126.7211
106.5888,126.7211
106.5888,126.7211
106.3644,126.6068
106.3644,126.6068
106.1248,126.5289
106.1248,126.5289
105.9835,126.5065
105.8760,126.4895
105.6240,126.4895
105.5577,126.5000
105.3752,126.5289
105.3752,126.5289
105.1356,126.6068
105.1356,126.6068
104.9112,126.7211
104.7073,126.8692
104.5453,127.0312
104.4703,127.0783
104.4046,127.0895
101.5615,127.0895
101.4707,127.1076
101.4707,127.1076
101.4648,127.1087
101.3682,127.1279
101.3379,127.1405
101.3253,127.1457
101.3253,127.1457
101.1861,127.2034
101.1861,127.2034
101.0222,127.3129
101.0222,127.3129
100.8829,127.4522
98.6439,129.6912
98.5689,129.7383
98.5032,129.7495
98.0047,129.7495
97.9286,129.7344
97.8818,129.7150
97.7644,129.6995
97.7644,129.6995
96.3356,129.6995
96.2182,129.7150
96.2182,129.7150
96.0722,129.7755
96.0722,129.7755
95.9467,129.8717
95.8505,129.9972
95.8505,129.9972
95.7900,130.1432
95.7900,130.1432
95.7752,130.2552
95.7745,130.2606
93.7755,130.2606
93.7755,130.2606
93.7600,130.1432
93.7600,130.1432
93.7600,130.1432
93.6995,129.9972
93.6995,129.9972
93.6173,129.8900
93.6033,129.8717
93.5615,129.8396
93.4778,129.7755
93.4778,129.7755
93.3318,129.7150
93.3318,129.7150
93.2144,129.6995
93.2144,129.6995
91.7856,129.6995
91.6682,129.7150
91.6682,129.7150
91.5222,129.7755
91.5222,129.7755
91.4793,129.8084
91.3988,129.8453
91.3581,129.8495
88.3387,129.8495
88.1613,129.8495
88.1275,129.8562
87.9873,129.8841
87.9873,129.8841
87.9873,129.8841
87.9177,129.9129
87.8234,129.9520
87.6864,130.0435
87.6864,130.0436
87.6760,130.0505
87.6713,130.0543
87.5921,130.0939
87.5451,130.0995
87.0373,130.0995
86.9509,130.0798
86.8817,130.0246
86.8433,129.9448
86.8433,129.8562
86.8817,129.7764
86.8966,129.7598
88.7476,127.9088
88.8225,127.8617
88.8883,127.8505
89.0674,127.8505
89.1537,127.8702
89.1843,127.8885
89.2660,127.9478
89.4624,128.0479
89.4624,128.0479
89.4624,128.0479
89.6720,128.1160
89.6720,128.1160
89.6720,128.1160
89.8898,128.1505
90.1102,128.1505
90.3280,128.1160
90.5376,128.0479
90.7340,127.9478
90.9124,127.8182
91.0682,127.6624
91.1978,127.4840
91.2916,127.3000
93.3500,127.3000
93.3605,127.4027
93.3605,127.4027
93.4156,127.5691
93.5077,127.7183
93.5077,127.7183
93.6317,127.8423
93.6317,127.8423
93.7809,127.9344
93.9473,127.9895
94.0500,128.0000
94.5000,128.0000
95.0000,128.0000
95.4500,128.0000
95.4500,128.0000
95.5527,127.9895
95.5527,127.9895
95.7191,127.9344
95.8683,127.8423
95.8683,127.8423
95.9923,127.7183
95.9923,127.7183
96.0844,127.5691
96.1395,127.4027
96.1500,127.3000
96.1500,126.5000
95.0000,126.5000
95.0000,128.0000
94.5000,128.0000
94.5000,128.0000
94.5000,126.5000
93.3500,126.5000
93.3500,127.3000
91.2916,127.3000
91.2979,127.2876
91.3660,127.0780
91.4005,126.8602
91.4005,126.6398
91.3953,126.6068
91.3702,126.4487
91.3660,126.4220
91.3660,126.4220
91.2979,126.2124
91.2979,126.2124
91.2979,126.2124
91.1978,126.0160
91.0682,125.8376
90.9124,125.6818
90.7340,125.5522
90.5376,125.4521
90.5376,125.4521
90.5376,125.4521
90.3287,125.3842
90.3287,125.3842
90.3280,125.3840
90.3279,125.3840
90.1102,125.3495
89.8898,125.3495
89.6720,125.3840
89.6720,125.3840
89.4624,125.4521
89.4624,125.4521
89.2660,125.5522
89.1843,125.6115
89.1029,125.6463
89.0674,125.6495
88.2634,125.6495
88.0923,125.6766
88.0923,125.6766
87.9276,125.7301
87.9276,125.7301
87.7732,125.8088
87.7732,125.8088
87.6331,125.9106
87.6331,125.9106
84.3524,129.1912
84.2775,129.2383
84.2117,129.2495
84.2000,129.2495
84.2000,129.2495
84.0972,129.2600
83.9307,129.3152
83.9307,129.3152
83.7813,129.4073
83.7813,129.4073
83.6573,129.5313
83.6573,129.5313
83.5652,129.6807
83.5652,129.6807
83.5100,129.8472
83.5100,129.8472
83.5100,129.8472
83.4995,129.9500
81.0005,129.9500
81.0005,129.5995
81.0202,129.5132
81.0754,129.4439
81.1552,129.4055
81.1995,129.4005
82.9240,129.4005
82.9343,129.3998
82.9655,129.3977
83.1450,129.3530
83.3108,129.2708
83.4549,129.1549
83.5708,129.0108
83.6530,128.8450
83.6977,128.6655
83.7005,128.6240
83.7005,127.9760
83.6977,127.9345
83.6530,127.7550
83.5708,127.5892
83.5620,127.5782
83.5223,127.5288
83.4549,127.4451
83.3687,127.3757
83.3108,127.3292
83.1450,127.2470
82.9655,127.2023
82.9655,127.2023
82.9240,127.1995
82.9240,127.1995
81.1995,127.1995
81.1132,127.1798
81.0439,127.1246
81.0055,127.0448
81.0005,127.0005
81.0005,125.2000
93.3500,125.2000
93.3500,126.0000
94.5000,126.0000
95.0000,126.0000
96.1500,126.0000
96.1500,125.2000
96.1500,125.2000
96.1395,125.0973
96.1395,125.0973
96.0844,124.9309
95.9923,124.7817
95.9923,124.7817
95.8683,124.6577
95.8683,124.6577
95.7191,124.5656
95.5527,124.5105
95.4500,124.5000
95.0000,124.5000
95.0000,126.0000
94.5000,126.0000
94.5000,124.5000
94.0500,124.5000
94.0500,124.5000
93.9473,124.5105
93.9473,124.5105
93.7809,124.5656
93.6317,124.6577
93.6317,124.6577
93.5077,124.7817
93.5077,124.7817
93.4156,124.9309
93.3605,125.0973
93.3500,125.2000
81.0005,125.2000
81.0005,121.1071
81.0202,121.0208
81.0754,120.9516
81.1552,120.9131
81.2438,120.9131
81.3236,120.9516
81.3788,121.0208
81.3947,121.0683
81.3989,121.0894
81.3989,121.0894
81.4973,121.4138
81.4973,121.4139
81.6270,121.7271
81.7868,122.0261
81.8769,122.1608
81.9752,122.3079
81.9752,122.3079
81.9752,122.3079
82.1053,122.4665
82.1903,122.5700
82.1903,122.5700
82.1903,122.5700
82.4300,122.8097
82.4300,122.8097
82.4300,122.8097
82.6921,123.0248
82.8286,123.1160
82.9739,123.2132
82.9739,123.2132
83.2729,123.3730
83.5862,123.5027
83.9106,123.6011
84.2431,123.6673
84.5805,123.7005
84.5805,123.7005
84.9195,123.7005
84.9195,123.7005
85.2569,123.6673
85.5894,123.6011
85.9138,123.5027
86.2271,123.3730
86.5261,123.2132
86.8079,123.0248
87.0700,122.8097
87.3097,122.5700
87.5248,122.3079
87.7132,122.0261
87.8730,121.7271
88.0027,121.4138
88.1011,121.0894
88.1673,120.7569
88.2005,120.4195
88.2005,120.0805
88.1673,119.7431
88.1011,119.4106
88.0027,119.0862
87.8730,118.7729
87.8120,118.6588
87.7132,118.4739
87.6658,118.4030
87.5248,118.1921
87.3097,117.9300
87.3097,117.9300
87.3097,117.9300
87.0700,117.6903
87.0700,117.6903
87.0700,117.6903
86.9827,117.6186
86.8079,117.4752
86.8079,117.4752
86.8079,117.4752
86.6670,117.3810
86.5261,117.2868
86.2233,117.1250
86.1564,117.0669
86.1214,116.9856
86.1251,116.8971
86.1669,116.8190
86.2384,116.7667
86.3171,116.7505
104.7576,116.7505
Z" /> 
</g>
<g style="fill:#000000; fill-opacity:1.0000; stroke:none;">
<circle cx="138.0000" cy="141.2500" r="0.1750" /> 
</g>
<g style="fill:#000000; fill-opacity:1.0000; stroke:none;">
<circle cx="84.7500" cy="141.0000" r="0.1750" /> 
</g>
<g style="fill:#000000; fill-opacity:1.0000; stroke:none;">
<circle cx="84.7500" cy="120.2500" r="0.1750" /> 
</g>
<g style="fill:#000000; fill-opacity:1.0000; stroke:none;">
<circle cx="138.0000" cy="119.2500" r="0.1750" /> 
</g>
<g style="fill:#000000; fill-opacity:1.0000; stroke:none;">
<circle cx="90.0000" cy="142.0000" r="0.1750" /> 
</g>
<g style="fill:#000000; fill-opacity:1.0000; stroke:none;">
<circle cx="100.1600" cy="142.0000" r="0.1750" /> 
</g>
<g style="fill:#000000; fill-opacity:1.0000; stroke:none;">
<circle cx="100.0000" cy="138.2500" r="0.1750" /> 
</g>
<g style="fill:#000000; fill-opacity:1.0000; stroke:none;">
<circle cx="95.0000" cy="138.2500" r="0.1750" /> 
</g>
<g style="fill:#000000; fill-opacity:1.0000; stroke:none;">
<circle cx="102.7500" cy="120.7949" r="0.1750" /> 
</g>
<g style="fill:#000000; fill-opacity:1.0000; stroke:none;">
<circle cx="102.7500" cy="122.7949" r="0.1750" /> 
</g>
<g style="fill:#000000; fill-opacity:1.0000; stroke:none;">
<circle cx="90.0000" cy="121.7500" r="0.1750" /> 
</g>
<g style="fill:#000000; fill-opacity:1.0000; stroke:none;">
<circle cx="90.0000" cy="126.7500" r="0.1750" /> 
</g>
<g style="fill:#FFFFFF; fill-opacity:1.0000; stroke:none;">
<circle cx="115.7500" cy="139.6900" r="0.1750" /> 
<circle cx="115.7500" cy="129.1900" r="0.1750" /> 
</g>
<g style="fill:#000000; fill-opacity:1.0000; stroke:none;">
<circle cx="105.7500" cy="140.7900" r="0.1750" /> 
</g>
<g style="fill:#000000; fill-opacity:1.0000; stroke:none;">
<circle cx="105.7500" cy="138.2500" r="0.1750" /> 
</g>
<g style="fill:#000000; fill-opacity:1.0000; stroke:none;">
<circle cx="105.7500" cy="135.7100" r="0.1750" /> 
</g>
<g style="fill:#000000; fill-opacity:1.0000; stroke:none;">
<circle cx="105.7500" cy="133.1700" r="0.1750" /> 
</g>
<g style="fill:#000000; fill-opacity:1.0000; stroke:none;">
<circle cx="105.7500" cy="130.6300" r="0.1750" /> 
</g>
<g style="fill:#000000; fill-opacity:1.0000; stroke:none;">
<circle cx="105.7500" cy="128.0900" r="0.1750" /> 
</g>
<g style="fill:#FFFFFF; fill-opacity:1.0000; stroke:none;">
<circle cx="123.7500" cy="121.6200" r="0.1750" /> 
<circle cx="123.7500" cy="140.6200" r="0.1750" /> 
</g>
<g style="fill:#000000; fill-opacity:1.0000; stroke:none;">
<circle cx="131.7500" cy="123.5000" r="0.1750" /> 
</g>
<g style="fill:#000000; fill-opacity:1.0000; stroke:none;">
<circle cx="131.7500" cy="126.0400" r="0.1750" /> 
</g>
<g style="fill:#000000; fill-opacity:1.0000; stroke:none;">
<circle cx="131.7500" cy="128.5800" r="0.1750" /> 
</g>
<g style="fill:#000000; fill-opacity:1.0000; stroke:none;">
<circle cx="131.7500" cy="131.1200" r="0.1750" /> 
</g>
<g style="fill:#000000; fill-opacity:1.0000; stroke:none;">
<circle cx="131.7500" cy="133.6600" r="0.1750" /> 
</g>
<g style="fill:#000000; fill-opacity:1.0000; stroke:none;">
<circle cx="131.7500" cy="136.2000" r="0.1750" /> 
</g>
<g style="fill:#000000; fill-opacity:1.0000; stroke:none;">
<circle cx="131.7500" cy="138.7400" r="0.1750" /> 
</g> 
</svg>
