  0
SECTION
  2
HEADER
  9
$ANGBASE
  50
0.0
  9
$ANGDIR
  70
1
  9
$MEASUREMENT
  70
1
  9
$INSUNITS
  70
4
  0
ENDSEC
  0
SECTION
  2
TABLES
  0
TABLE
  2
LTYPE
  70
4
  0
LTYPE
  5
40F
  2
CONTINUOUS
  70
0
  3
Solid line
  72
65
  73
0
  40
0.0
  0
LTYPE
  5
410
  2
DASHDOT
 70
0
  3
Dash Dot ____ _ ____ _
 72
65
 73
4
 40
2.0
 49
1.25
 49
-0.25
 49
0.25
 49
-0.25
  0
LTYPE
  5
411
  2
DASHED
 70
0
  3
Dashed __ __ __ __ __
 72
65
 73
2
 40
0.75
 49
0.5
 49
-0.25
  0
LTYPE
  5
43B
  2
DOTTED
 70
0
  3
Dotted .  .  .  .
 72
65
 73
2
 40
0.2
 49
0.0
 49
-0.2
  0
ENDTAB
  0
TABLE
  2
STYLE
  70
4
  0
STYLE
  2
KICAD
  70
0
  40
0
  41
1
  42
1
  50
0
  71
0
  3
isocp.shx
  0
STYLE
  2
KICADB
  70
0
  40
0
  41
1
  42
1
  50
0
  71
0
  3
isocp.shx
  0
STYLE
  2
KICADI
  70
0
  40
0
  41
1
  42
1
  50
15
  71
0
  3
isocp.shx
  0
STYLE
  2
KICADBI
  70
0
  40
0
  41
1
  42
1
  50
15
  71
0
  3
isocp.shx
  0
ENDTAB
  0
TABLE
  2
LAYER
  70
2
  0
LAYER
  2
F.Mask
  70
0
  62
201
  420
14181631
  6
CONTINUOUS
  0
LAYER
  2
Edge.Cuts
  70
0
  62
254
  420
13685453
  6
CONTINUOUS
  0
ENDTAB
  0
ENDSEC
  0
SECTION
  2
ENTITIES
0
LINE
8
Edge.Cuts
6
CONTINUOUS
10
141.2695089999999993
20
-116.1519210000000015
11
141.3055569999999932
21
-116.166852999999989
0
LINE
8
Edge.Cuts
6
CONTINUOUS
10
141.3055569999999932
20
-116.166852999999989
11
141.3331469999999968
21
-116.1944429999999926
0
LINE
8
Edge.Cuts
6
CONTINUOUS
10
141.3331469999999968
20
-116.1944429999999926
11
141.3480789999999843
21
-116.2304910000000007
0
LINE
8
Edge.Cuts
6
CONTINUOUS
10
141.3480789999999843
20
-116.2304910000000007
11
141.3499999999999943
21
-116.25
0
LINE
8
Edge.Cuts
6
CONTINUOUS
10
141.3499999999999943
20
-116.25
11
141.3499999999999943
21
-144.5
0
LINE
8
Edge.Cuts
6
CONTINUOUS
10
141.3499999999999943
20
-144.5
11
141.3480789999999843
21
-144.5195089999999993
0
LINE
8
Edge.Cuts
6
CONTINUOUS
10
141.3480789999999843
20
-144.5195089999999993
11
141.3331469999999968
21
-144.5555569999999932
0
LINE
8
Edge.Cuts
6
CONTINUOUS
10
141.3331469999999968
20
-144.5555569999999932
11
141.3055569999999932
21
-144.5831469999999968
0
LINE
8
Edge.Cuts
6
CONTINUOUS
10
141.3055569999999932
20
-144.5831469999999968
11
141.2695089999999993
21
-144.5980789999999843
0
LINE
8
Edge.Cuts
6
CONTINUOUS
10
141.2695089999999993
20
-144.5980789999999843
11
141.25
21
-144.5999999999999943
0
LINE
8
Edge.Cuts
6
CONTINUOUS
10
141.25
20
-144.5999999999999943
11
80.5
21
-144.5999999999999943
0
LINE
8
Edge.Cuts
6
CONTINUOUS
10
80.5
20
-144.5999999999999943
11
80.4804910000000007
21
-144.5980789999999843
0
LINE
8
Edge.Cuts
6
CONTINUOUS
10
80.4804910000000007
20
-144.5980789999999843
11
80.4444429999999926
21
-144.5831469999999968
0
LINE
8
Edge.Cuts
6
CONTINUOUS
10
80.4444429999999926
20
-144.5831469999999968
11
80.4168530000000032
21
-144.5555569999999932
0
LINE
8
Edge.Cuts
6
CONTINUOUS
10
80.4168530000000032
20
-144.5555569999999932
11
80.4019210000000015
21
-144.5195089999999993
0
LINE
8
Edge.Cuts
6
CONTINUOUS
10
80.4019210000000015
20
-144.5195089999999993
11
80.3999999999999915
21
-144.5
0
LINE
8
Edge.Cuts
6
CONTINUOUS
10
80.3999999999999915
20
-144.5
11
80.3999999999999915
21
-116.25
0
LINE
8
Edge.Cuts
6
CONTINUOUS
10
80.3999999999999915
20
-116.25
11
80.4019210000000015
21
-116.2304910000000007
0
LINE
8
Edge.Cuts
6
CONTINUOUS
10
80.4019210000000015
20
-116.2304910000000007
11
80.4168530000000032
21
-116.1944429999999926
0
LINE
8
Edge.Cuts
6
CONTINUOUS
10
80.4168530000000032
20
-116.1944429999999926
11
80.4444429999999926
21
-116.166852999999989
0
LINE
8
Edge.Cuts
6
CONTINUOUS
10
80.4444429999999926
20
-116.166852999999989
11
80.4804910000000007
21
-116.1519210000000015
0
LINE
8
Edge.Cuts
6
CONTINUOUS
10
80.4804910000000007
20
-116.1519210000000015
11
80.5
21
-116.1499999999999915
0
LINE
8
Edge.Cuts
6
CONTINUOUS
10
80.5
20
-116.1499999999999915
11
141.25
21
-116.1499999999999915
0
LINE
8
Edge.Cuts
6
CONTINUOUS
10
141.25
20
-116.1499999999999915
11
141.2695089999999993
21
-116.1519210000000015
0
LINE
8
Edge.Cuts
6
CONTINUOUS
10
80.5999999999999943
20
-116.3499999999999943
11
80.5999999999999943
21
-144.4000000000000057
0
LINE
8
Edge.Cuts
6
CONTINUOUS
10
80.5999999999999943
20
-144.4000000000000057
11
141.1500000000000057
21
-144.4000000000000057
0
LINE
8
Edge.Cuts
6
CONTINUOUS
10
141.1500000000000057
20
-144.4000000000000057
11
141.1500000000000057
21
-116.3499999999999943
0
LINE
8
Edge.Cuts
6
CONTINUOUS
10
141.1500000000000057
20
-116.3499999999999943
11
80.5999999999999943
21
-116.3499999999999943
0
CIRCLE
8
Edge.Cuts
10
138.
20
-141.25
40
0.175
0
CIRCLE
8
Edge.Cuts
10
84.75
20
-141.
40
0.175
0
CIRCLE
8
Edge.Cuts
10
84.75
20
-120.25
40
0.175
0
CIRCLE
8
Edge.Cuts
10
138.
20
-119.25
40
0.175
0
CIRCLE
8
Edge.Cuts
10
90.
20
-142.
40
0.175
0
CIRCLE
8
Edge.Cuts
10
100.1599999999999966
20
-142.
40
0.175
0
CIRCLE
8
Edge.Cuts
10
100.
20
-138.25
40
0.175
0
CIRCLE
8
Edge.Cuts
10
95.
20
-138.25
40
0.175
0
CIRCLE
8
Edge.Cuts
10
102.75
20
-120.7948880000000003
40
0.175
0
CIRCLE
8
Edge.Cuts
10
102.75
20
-122.7948880000000003
40
0.175
0
CIRCLE
8
Edge.Cuts
10
90.
20
-121.75
40
0.175
0
CIRCLE
8
Edge.Cuts
10
90.
20
-126.75
40
0.175
0
CIRCLE
8
Edge.Cuts
10
115.75
20
-139.6899999999999977
40
0.175
0
CIRCLE
8
Edge.Cuts
10
115.75
20
-129.1899999999999977
40
0.175
0
CIRCLE
8
Edge.Cuts
10
105.75
20
-140.789999999999992
40
0.175
0
CIRCLE
8
Edge.Cuts
10
105.75
20
-138.25
40
0.175
0
CIRCLE
8
Edge.Cuts
10
105.75
20
-135.710000000000008
40
0.175
0
CIRCLE
8
Edge.Cuts
10
105.75
20
-133.1699999999999875
40
0.175
0
CIRCLE
8
Edge.Cuts
10
105.75
20
-130.6299999999999955
40
0.175
0
CIRCLE
8
Edge.Cuts
10
105.75
20
-128.0900000000000034
40
0.175
0
CIRCLE
8
Edge.Cuts
10
123.75
20
-121.6199999999999903
40
0.175
0
CIRCLE
8
Edge.Cuts
10
123.75
20
-140.6200000000000045
40
0.175
0
CIRCLE
8
Edge.Cuts
10
131.75
20
-123.5
40
0.175
0
CIRCLE
8
Edge.Cuts
10
131.75
20
-126.039999999999992
40
0.175
0
CIRCLE
8
Edge.Cuts
10
131.75
20
-128.5799999999999841
40
0.175
0
CIRCLE
8
Edge.Cuts
10
131.75
20
-131.1200000000000045
40
0.175
0
CIRCLE
8
Edge.Cuts
10
131.75
20
-133.6599999999999966
40
0.175
0
CIRCLE
8
Edge.Cuts
10
131.75
20
-136.1999999999999886
40
0.175
0
CIRCLE
8
Edge.Cuts
10
131.75
20
-138.7399999999999807
40
0.175
0
CIRCLE
8
Edge.Cuts
10
138.
20
-141.25
40
0.175
0
CIRCLE
8
Edge.Cuts
10
84.75
20
-141.
40
0.175
0
CIRCLE
8
Edge.Cuts
10
84.75
20
-120.25
40
0.175
0
CIRCLE
8
Edge.Cuts
10
138.
20
-119.25
40
0.175
0
CIRCLE
8
Edge.Cuts
10
90.
20
-142.
40
0.175
0
CIRCLE
8
Edge.Cuts
10
100.1599999999999966
20
-142.
40
0.175
0
CIRCLE
8
Edge.Cuts
10
100.
20
-138.25
40
0.175
0
CIRCLE
8
Edge.Cuts
10
95.
20
-138.25
40
0.175
0
CIRCLE
8
Edge.Cuts
10
102.75
20
-120.7948880000000003
40
0.175
0
CIRCLE
8
Edge.Cuts
10
102.75
20
-122.7948880000000003
40
0.175
0
CIRCLE
8
Edge.Cuts
10
90.
20
-121.75
40
0.175
0
CIRCLE
8
Edge.Cuts
10
90.
20
-126.75
40
0.175
0
CIRCLE
8
Edge.Cuts
10
115.75
20
-139.6899999999999977
40
0.175
0
CIRCLE
8
Edge.Cuts
10
115.75
20
-129.1899999999999977
40
0.175
0
CIRCLE
8
Edge.Cuts
10
105.75
20
-140.789999999999992
40
0.175
0
CIRCLE
8
Edge.Cuts
10
105.75
20
-138.25
40
0.175
0
CIRCLE
8
Edge.Cuts
10
105.75
20
-135.710000000000008
40
0.175
0
CIRCLE
8
Edge.Cuts
10
105.75
20
-133.1699999999999875
40
0.175
0
CIRCLE
8
Edge.Cuts
10
105.75
20
-130.6299999999999955
40
0.175
0
CIRCLE
8
Edge.Cuts
10
105.75
20
-128.0900000000000034
40
0.175
0
CIRCLE
8
Edge.Cuts
10
123.75
20
-121.6199999999999903
40
0.175
0
CIRCLE
8
Edge.Cuts
10
123.75
20
-140.6200000000000045
40
0.175
0
CIRCLE
8
Edge.Cuts
10
131.75
20
-123.5
40
0.175
0
CIRCLE
8
Edge.Cuts
10
131.75
20
-126.039999999999992
40
0.175
0
CIRCLE
8
Edge.Cuts
10
131.75
20
-128.5799999999999841
40
0.175
0
CIRCLE
8
Edge.Cuts
10
131.75
20
-131.1200000000000045
40
0.175
0
CIRCLE
8
Edge.Cuts
10
131.75
20
-133.6599999999999966
40
0.175
0
CIRCLE
8
Edge.Cuts
10
131.75
20
-136.1999999999999886
40
0.175
0
CIRCLE
8
Edge.Cuts
10
131.75
20
-138.7399999999999807
40
0.175
  0
ENDSEC
  0
EOF
