<?xml version="1.0" standalone="no"?>
 <!DOCTYPE svg PUBLIC "-//W3C//DTD SVG 1.1//EN" 
 "http://www.w3.org/Graphics/SVG/1.1/DTD/svg11.dtd"> 
<svg
  xmlns:svg="http://www.w3.org/2000/svg"
  xmlns="http://www.w3.org/2000/svg"
  xmlns:xlink="http://www.w3.org/1999/xlink"
  xmlns:inkscape="http://www.inkscape.org/namespaces/inkscape"
  version="1.1"
  width="297.0022mm" height="210.0072mm" viewBox="0.0000 0.0000 297.0022 210.0072">
<title>SVG Image created as pcb-supermini-c3-bmp390-F_Mask.svg date 2026-03-25T20:22:29 </title>
  <desc>Image generated by PCBNEW </desc>
<g style="fill:#000000; fill-opacity:1.0000;stroke:#000000; stroke-opacity:1.0000;
stroke-linecap:round; stroke-linejoin:round;"
 transform="translate(0 0) scale(1 1)">
<path style="fill:#000000; fill-opacity:1.0000; stroke:none;fill-rule:evenodd;"
d="M 87.3375,130.8500
87.3489,130.7926
87.3814,130.7439
87.4301,130.7114
87.4875,130.7000
88.5125,130.7000
88.5699,130.7114
88.6186,130.7439
88.6511,130.7926
88.6625,130.8500
88.6625,131.1500
88.6511,131.2074
88.6186,131.2561
88.5699,131.2886
88.5125,131.3000
87.4875,131.3000
87.4301,131.2886
87.3814,131.2561
87.3489,131.2074
87.3375,131.1500
Z" /> 
<path style="fill:#000000; fill-opacity:1.0000; stroke:none;fill-rule:evenodd;"
d="M 87.3375,132.7500
87.3489,132.6926
87.3814,132.6439
87.4301,132.6114
87.4875,132.6000
88.5125,132.6000
88.5699,132.6114
88.6186,132.6439
88.6511,132.6926
88.6625,132.7500
88.6625,133.0500
88.6511,133.1074
88.6186,133.1561
88.5699,133.1886
88.5125,133.2000
87.4875,133.2000
87.4301,133.1886
87.3814,133.1561
87.3489,133.1074
87.3375,133.0500
Z" /> 
<path style="fill:#000000; fill-opacity:1.0000; stroke:none;fill-rule:evenodd;"
d="M 89.6125,131.8000
89.6239,131.7426
89.6564,131.6939
89.7051,131.6614
89.7625,131.6500
90.7875,131.6500
90.8449,131.6614
90.8936,131.6939
90.9261,131.7426
90.9375,131.8000
90.9375,132.1000
90.9261,132.1574
90.8936,132.2061
90.8449,132.2386
90.7875,132.2500
89.7625,132.2500
89.7051,132.2386
89.6564,132.2061
89.6239,132.1574
89.6125,132.1000
Z" /> 
</g>
<g style="fill:#000000; fill-opacity:1.0000; stroke:none;">
<circle cx="138.0000" cy="141.2500" r="1.8000" /> 
<circle cx="138.0000" cy="141.2500" r="2.8500" /> 
<path style="fill:#000000; fill-opacity:1.0000; stroke:none;fill-rule:evenodd;"
d="M 85.6500,129.8500
85.7074,129.8614
85.7561,129.8939
85.7886,129.9426
85.8000,130.0000
85.8000,130.3000
85.7886,130.3574
85.7561,130.4061
85.7074,130.4386
85.6500,130.4500
84.2500,130.4500
84.1926,130.4386
84.1439,130.4061
84.1114,130.3574
84.1000,130.3000
84.1000,130.0000
84.1114,129.9426
84.1439,129.8939
84.1926,129.8614
84.2500,129.8500
Z" /> 
<path style="fill:#000000; fill-opacity:1.0000; stroke:none;fill-rule:evenodd;"
d="M 85.6500,131.1000
85.7074,131.1114
85.7561,131.1439
85.7886,131.1926
85.8000,131.2500
85.8000,131.5500
85.7886,131.6074
85.7561,131.6561
85.7074,131.6886
85.6500,131.7000
84.2500,131.7000
84.1926,131.6886
84.1439,131.6561
84.1114,131.6074
84.1000,131.5500
84.1000,131.2500
84.1114,131.1926
84.1439,131.1439
84.1926,131.1114
84.2500,131.1000
Z" /> 
<path style="fill:#000000; fill-opacity:1.0000; stroke:none;fill-rule:evenodd;"
d="M 85.6500,132.3500
85.7074,132.3614
85.7561,132.3939
85.7886,132.4426
85.8000,132.5000
85.8000,132.8000
85.7886,132.8574
85.7561,132.9061
85.7074,132.9386
85.6500,132.9500
84.2500,132.9500
84.1926,132.9386
84.1439,132.9061
84.1114,132.8574
84.1000,132.8000
84.1000,132.5000
84.1114,132.4426
84.1439,132.3939
84.1926,132.3614
84.2500,132.3500
Z" /> 
<path style="fill:#000000; fill-opacity:1.0000; stroke:none;fill-rule:evenodd;"
d="M 85.6500,133.6000
85.7074,133.6114
85.7561,133.6439
85.7886,133.6926
85.8000,133.7500
85.8000,134.0500
85.7886,134.1074
85.7561,134.1561
85.7074,134.1886
85.6500,134.2000
84.2500,134.2000
84.1926,134.1886
84.1439,134.1561
84.1114,134.1074
84.1000,134.0500
84.1000,133.7500
84.1114,133.6926
84.1439,133.6439
84.1926,133.6114
84.2500,133.6000
Z" /> 
<path style="fill:#000000; fill-opacity:1.0000; stroke:none;fill-rule:evenodd;"
d="M 82.8500,127.8000
82.9457,127.8190
83.0268,127.8732
83.0810,127.9543
83.1000,128.0500
83.1000,128.5500
83.0810,128.6457
83.0268,128.7268
82.9457,128.7810
82.8500,128.8000
80.6500,128.8000
80.5543,128.7810
80.4732,128.7268
80.4190,128.6457
80.4000,128.5500
80.4000,128.0500
80.4190,127.9543
80.4732,127.8732
80.5543,127.8190
80.6500,127.8000
Z" /> 
<path style="fill:#000000; fill-opacity:1.0000; stroke:none;fill-rule:evenodd;"
d="M 82.8500,135.2500
82.9457,135.2690
83.0268,135.3232
83.0810,135.4043
83.1000,135.5000
83.1000,136.0000
83.0810,136.0957
83.0268,136.1768
82.9457,136.2310
82.8500,136.2500
80.6500,136.2500
80.5543,136.2310
80.4732,136.1768
80.4190,136.0957
80.4000,136.0000
80.4000,135.5000
80.4190,135.4043
80.4732,135.3232
80.5543,135.2690
80.6500,135.2500
Z" /> 
<circle cx="84.7500" cy="141.0000" r="1.8000" /> 
<circle cx="84.7500" cy="141.0000" r="2.8500" /> 
<path style="fill:#000000; fill-opacity:1.0000; stroke:none;fill-rule:evenodd;"
d="M 125.1055,138.0180
125.1133,137.9790
125.1354,137.9459
125.1685,137.9238
125.2075,137.9160
128.2325,137.9160
128.2715,137.9238
128.3046,137.9459
128.3267,137.9790
128.3345,138.0180
128.3345,139.5420
128.3267,139.5810
128.3046,139.6141
128.2715,139.6362
128.2325,139.6440
125.2075,139.6440
125.1685,139.6362
125.1354,139.6141
125.1133,139.5810
125.1055,139.5420
Z" /> 
<path style="fill:#000000; fill-opacity:1.0000; stroke:none;fill-rule:evenodd;"
d="M 125.1055,135.4780
125.1133,135.4390
125.1354,135.4059
125.1685,135.3838
125.2075,135.3760
128.2325,135.3760
128.2715,135.3838
128.3046,135.4059
128.3267,135.4390
128.3345,135.4780
128.3345,137.0020
128.3267,137.0410
128.3046,137.0741
128.2715,137.0962
128.2325,137.1040
125.2075,137.1040
125.1685,137.0962
125.1354,137.0741
125.1133,137.0410
125.1055,137.0020
Z" /> 
<path style="fill:#000000; fill-opacity:1.0000; stroke:none;fill-rule:evenodd;"
d="M 125.1055,132.9380
125.1133,132.8990
125.1354,132.8659
125.1685,132.8438
125.2075,132.8360
128.2325,132.8360
128.2715,132.8438
128.3046,132.8659
128.3267,132.8990
128.3345,132.9380
128.3345,134.4620
128.3267,134.5010
128.3046,134.5341
128.2715,134.5562
128.2325,134.5640
125.2075,134.5640
125.1685,134.5562
125.1354,134.5341
125.1133,134.5010
125.1055,134.4620
Z" /> 
<path style="fill:#000000; fill-opacity:1.0000; stroke:none;fill-rule:evenodd;"
d="M 125.1055,130.3980
125.1133,130.3590
125.1354,130.3259
125.1685,130.3038
125.2075,130.2960
128.2325,130.2960
128.2715,130.3038
128.3046,130.3259
128.3267,130.3590
128.3345,130.3980
128.3345,131.9220
128.3267,131.9610
128.3046,131.9941
128.2715,132.0162
128.2325,132.0240
125.2075,132.0240
125.1685,132.0162
125.1354,131.9941
125.1133,131.9610
125.1055,131.9220
Z" /> 
<path style="fill:#000000; fill-opacity:1.0000; stroke:none;fill-rule:evenodd;"
d="M 125.1055,125.3180
125.1133,125.2790
125.1354,125.2459
125.1685,125.2238
125.2075,125.2160
128.2325,125.2160
128.2715,125.2238
128.3046,125.2459
128.3267,125.2790
128.3345,125.3180
128.3345,126.8420
128.3267,126.8810
128.3046,126.9141
128.2715,126.9362
128.2325,126.9440
125.2075,126.9440
125.1685,126.9362
125.1354,126.9141
125.1133,126.8810
125.1055,126.8420
Z" /> 
<path style="fill:#000000; fill-opacity:1.0000; stroke:none;fill-rule:evenodd;"
d="M 125.1055,127.8580
125.1133,127.8190
125.1354,127.7859
125.1685,127.7638
125.2075,127.7560
128.2325,127.7560
128.2715,127.7638
128.3046,127.7859
128.3267,127.8190
128.3345,127.8580
128.3345,129.3820
128.3267,129.4210
128.3046,129.4541
128.2715,129.4762
128.2325,129.4840
125.2075,129.4840
125.1685,129.4762
125.1354,129.4541
125.1133,129.4210
125.1055,129.3820
Z" /> 
<path style="fill:#000000; fill-opacity:1.0000; stroke:none;fill-rule:evenodd;"
d="M 109.1355,120.2380
109.1433,120.1990
109.1654,120.1659
109.1985,120.1438
109.2375,120.1360
112.2625,120.1360
112.3015,120.1438
112.3346,120.1659
112.3567,120.1990
112.3645,120.2380
112.3645,121.7620
112.3567,121.8010
112.3346,121.8341
112.3015,121.8562
112.2625,121.8640
109.2375,121.8640
109.1985,121.8562
109.1654,121.8341
109.1433,121.8010
109.1355,121.7620
Z" /> 
<path style="fill:#000000; fill-opacity:1.0000; stroke:none;fill-rule:evenodd;"
d="M 125.1055,120.2380
125.1133,120.1990
125.1354,120.1659
125.1685,120.1438
125.2075,120.1360
128.2325,120.1360
128.2715,120.1438
128.3046,120.1659
128.3267,120.1990
128.3345,120.2380
128.3345,121.7620
128.3267,121.8010
128.3046,121.8341
128.2715,121.8562
128.2325,121.8640
125.2075,121.8640
125.1685,121.8562
125.1354,121.8341
125.1133,121.8010
125.1055,121.7620
Z" /> 
<path style="fill:#000000; fill-opacity:1.0000; stroke:none;fill-rule:evenodd;"
d="M 109.1355,122.7780
109.1433,122.7390
109.1654,122.7059
109.1985,122.6838
109.2375,122.6760
112.2625,122.6760
112.3015,122.6838
112.3346,122.7059
112.3567,122.7390
112.3645,122.7780
112.3645,124.3020
112.3567,124.3410
112.3346,124.3741
112.3015,124.3962
112.2625,124.4040
109.2375,124.4040
109.1985,124.3962
109.1654,124.3741
109.1433,124.3410
109.1355,124.3020
Z" /> 
<path style="fill:#000000; fill-opacity:1.0000; stroke:none;fill-rule:evenodd;"
d="M 109.1355,125.3180
109.1433,125.2790
109.1654,125.2459
109.1985,125.2238
109.2375,125.2160
112.2625,125.2160
112.3015,125.2238
112.3346,125.2459
112.3567,125.2790
112.3645,125.3180
112.3645,126.8420
112.3567,126.8810
112.3346,126.9141
112.3015,126.9362
112.2625,126.9440
109.2375,126.9440
109.1985,126.9362
109.1654,126.9141
109.1433,126.8810
109.1355,126.8420
Z" /> 
<path style="fill:#000000; fill-opacity:1.0000; stroke:none;fill-rule:evenodd;"
d="M 109.1355,127.8580
109.1433,127.8190
109.1654,127.7859
109.1985,127.7638
109.2375,127.7560
112.2625,127.7560
112.3015,127.7638
112.3346,127.7859
112.3567,127.8190
112.3645,127.8580
112.3645,129.3820
112.3567,129.4210
112.3346,129.4541
112.3015,129.4762
112.2625,129.4840
109.2375,129.4840
109.1985,129.4762
109.1654,129.4541
109.1433,129.4210
109.1355,129.3820
Z" /> 
<path style="fill:#000000; fill-opacity:1.0000; stroke:none;fill-rule:evenodd;"
d="M 109.1355,130.3980
109.1433,130.3590
109.1654,130.3259
109.1985,130.3038
109.2375,130.2960
112.2625,130.2960
112.3015,130.3038
112.3346,130.3259
112.3567,130.3590
112.3645,130.3980
112.3645,131.9220
112.3567,131.9610
112.3346,131.9941
112.3015,132.0162
112.2625,132.0240
109.2375,132.0240
109.1985,132.0162
109.1654,131.9941
109.1433,131.9610
109.1355,131.9220
Z" /> 
<path style="fill:#000000; fill-opacity:1.0000; stroke:none;fill-rule:evenodd;"
d="M 109.1355,132.9380
109.1433,132.8990
109.1654,132.8659
109.1985,132.8438
109.2375,132.8360
112.2625,132.8360
112.3015,132.8438
112.3346,132.8659
112.3567,132.8990
112.3645,132.9380
112.3645,134.4620
112.3567,134.5010
112.3346,134.5341
112.3015,134.5562
112.2625,134.5640
109.2375,134.5640
109.1985,134.5562
109.1654,134.5341
109.1433,134.5010
109.1355,134.4620
Z" /> 
<path style="fill:#000000; fill-opacity:1.0000; stroke:none;fill-rule:evenodd;"
d="M 109.1355,135.4780
109.1433,135.4390
109.1654,135.4059
109.1985,135.3838
109.2375,135.3760
112.2625,135.3760
112.3015,135.3838
112.3346,135.4059
112.3567,135.4390
112.3645,135.4780
112.3645,137.0020
112.3567,137.0410
112.3346,137.0741
112.3015,137.0962
112.2625,137.1040
109.2375,137.1040
109.1985,137.0962
109.1654,137.0741
109.1433,137.0410
109.1355,137.0020
Z" /> 
<path style="fill:#000000; fill-opacity:1.0000; stroke:none;fill-rule:evenodd;"
d="M 109.1355,138.0180
109.1433,137.9790
109.1654,137.9459
109.1985,137.9238
109.2375,137.9160
112.2625,137.9160
112.3015,137.9238
112.3346,137.9459
112.3567,137.9790
112.3645,138.0180
112.3645,139.5420
112.3567,139.5810
112.3346,139.6141
112.3015,139.6362
112.2625,139.6440
109.2375,139.6440
109.1985,139.6362
109.1654,139.6141
109.1433,139.5810
109.1355,139.5420
Z" /> 
<path style="fill:#000000; fill-opacity:1.0000; stroke:none;fill-rule:evenodd;"
d="M 125.1055,122.7780
125.1133,122.7390
125.1354,122.7059
125.1685,122.6838
125.2075,122.6760
128.2325,122.6760
128.2715,122.6838
128.3046,122.7059
128.3267,122.7390
128.3345,122.7780
128.3345,124.3020
128.3267,124.3410
128.3046,124.3741
128.2715,124.3962
128.2325,124.4040
125.2075,124.4040
125.1685,124.3962
125.1354,124.3741
125.1133,124.3410
125.1055,124.3020
Z" /> 
<path style="fill:#000000; fill-opacity:1.0000; stroke:none;fill-rule:evenodd;"
d="M 95.4000,121.0000
95.4957,121.0190
95.5768,121.0732
95.6310,121.1543
95.6500,121.2500
95.6500,123.2500
95.6310,123.3457
95.5768,123.4268
95.4957,123.4810
95.4000,123.5000
94.1000,123.5000
94.0043,123.4810
93.9232,123.4268
93.8690,123.3457
93.8500,123.2500
93.8500,121.2500
93.8690,121.1543
93.9232,121.0732
94.0043,121.0190
94.1000,121.0000
Z" /> 
<path style="fill:#000000; fill-opacity:1.0000; stroke:none;fill-rule:evenodd;"
d="M 95.4000,125.0000
95.4957,125.0190
95.5768,125.0732
95.6310,125.1543
95.6500,125.2500
95.6500,127.2500
95.6310,127.3457
95.5768,127.4268
95.4957,127.4810
95.4000,127.5000
94.1000,127.5000
94.0043,127.4810
93.9232,127.4268
93.8690,127.3457
93.8500,127.2500
93.8500,125.2500
93.8690,125.1543
93.9232,125.0732
94.0043,125.0190
94.1000,125.0000
Z" /> 
<circle cx="84.7500" cy="120.2500" r="1.8000" /> 
<circle cx="84.7500" cy="120.2500" r="2.8500" /> 
<path style="fill:#000000; fill-opacity:1.0000; stroke:none;fill-rule:evenodd;"
d="M 91.7230,130.3000
91.7308,130.2610
91.7529,130.2279
91.7860,130.2058
91.8250,130.1980
93.1750,130.1980
93.2140,130.2058
93.2471,130.2279
93.2692,130.2610
93.2770,130.3000
93.2770,131.2000
93.2692,131.2390
93.2471,131.2721
93.2140,131.2942
93.1750,131.3020
91.8250,131.3020
91.7860,131.2942
91.7529,131.2721
91.7308,131.2390
91.7230,131.2000
Z" /> 
<path style="fill:#000000; fill-opacity:1.0000; stroke:none;fill-rule:evenodd;"
d="M 91.7230,132.8000
91.7308,132.7610
91.7529,132.7279
91.7860,132.7058
91.8250,132.6980
93.1750,132.6980
93.2140,132.7058
93.2471,132.7279
93.2692,132.7610
93.2770,132.8000
93.2770,133.7000
93.2692,133.7390
93.2471,133.7721
93.2140,133.7942
93.1750,133.8020
91.8250,133.8020
91.7860,133.7942
91.7529,133.7721
91.7308,133.7390
91.7230,133.7000
Z" /> 
<path style="fill:#000000; fill-opacity:1.0000; stroke:none;fill-rule:evenodd;"
d="M 96.2730,132.8000
96.2808,132.7610
96.3029,132.7279
96.3360,132.7058
96.3750,132.6980
97.7250,132.6980
97.7640,132.7058
97.7971,132.7279
97.8192,132.7610
97.8270,132.8000
97.8270,133.7000
97.8192,133.7390
97.7971,133.7721
97.7640,133.7942
97.7250,133.8020
96.3750,133.8020
96.3360,133.7942
96.3029,133.7721
96.2808,133.7390
96.2730,133.7000
Z" /> 
<path style="fill:#000000; fill-opacity:1.0000; stroke:none;fill-rule:evenodd;"
d="M 96.2730,130.3000
96.2808,130.2610
96.3029,130.2279
96.3360,130.2058
96.3750,130.1980
97.7250,130.1980
97.7640,130.2058
97.7971,130.2279
97.8192,130.2610
97.8270,130.3000
97.8270,131.2000
97.8192,131.2390
97.7971,131.2721
97.7640,131.2942
97.7250,131.3020
96.3750,131.3020
96.3360,131.2942
96.3029,131.2721
96.2808,131.2390
96.2730,131.2000
Z" /> 
<circle cx="138.0000" cy="119.2500" r="1.8000" /> 
<circle cx="138.0000" cy="119.2500" r="2.8500" /> 
<circle cx="90.0000" cy="142.0000" r="0.8000" /> 
<circle cx="100.1600" cy="142.0000" r="0.8000" /> 
<circle cx="100.0000" cy="138.2500" r="0.8000" /> 
<circle cx="95.0000" cy="138.2500" r="0.8000" /> 
<path style="fill:#000000; fill-opacity:1.0000; stroke:none;fill-rule:evenodd;"
d="M 103.3000,119.9949
103.3957,120.0139
103.4768,120.0681
103.5310,120.1492
103.5500,120.2449
103.5500,121.3449
103.5310,121.4406
103.4768,121.5217
103.3957,121.5759
103.3000,121.5949
102.2000,121.5949
102.1043,121.5759
102.0232,121.5217
101.9690,121.4406
101.9500,121.3449
101.9500,120.2449
101.9690,120.1492
102.0232,120.0681
102.1043,120.0139
102.2000,119.9949
Z" /> 
<circle cx="102.7500" cy="122.7949" r="0.8000" /> 
<circle cx="90.0000" cy="121.7500" r="0.8000" /> 
<circle cx="90.0000" cy="126.7500" r="0.8000" /> 
<circle cx="115.7500" cy="139.6900" r="1.5000" /> 
<circle cx="115.7500" cy="129.1900" r="1.5000" /> 
<circle cx="105.7500" cy="140.7900" r="1.0000" /> 
<circle cx="105.7500" cy="138.2500" r="1.0000" /> 
<circle cx="105.7500" cy="135.7100" r="1.0000" /> 
<circle cx="105.7500" cy="133.1700" r="1.0000" /> 
<circle cx="105.7500" cy="130.6300" r="1.0000" /> 
<circle cx="105.7500" cy="128.0900" r="1.0000" /> 
<circle cx="123.7500" cy="121.6200" r="1.0000" /> 
<circle cx="123.7500" cy="140.6200" r="1.0000" /> 
<circle cx="131.7500" cy="123.5000" r="0.9000" /> 
<circle cx="131.7500" cy="126.0400" r="0.9000" /> 
<circle cx="131.7500" cy="128.5800" r="0.9000" /> 
<circle cx="131.7500" cy="131.1200" r="0.9000" /> 
<circle cx="131.7500" cy="133.6600" r="0.9000" /> 
<circle cx="131.7500" cy="136.2000" r="0.9000" /> 
<circle cx="131.7500" cy="138.7400" r="0.9000" /> 
</g> 
</svg>
